<?xml version="1.0" standalone="no"?>
<!DOCTYPE svg PUBLIC "-//W3C//DTD SVG 1.1//EN" "http://www.w3.org/Graphics/SVG/1.1/DTD/svg11.dtd" >
<svg>
<metadata>
Created by FontForge 20090914 at Tue Jul 19 20:12:16 2016
 By www-data
Copyrighted (c) 1981, 1997 by and the property of Linotype-Hell AG and/or its subsidiaries. All Rights Reserved. All Cyrillic characters designed by DoubleAlex. Helvetica is a registered Trademark of Linotype-Hell AG and/or its subsidiaries.
</metadata>
<defs>
<font id="Helvetica-3-Thin-Italic" horiz-adv-x="556" >
  <font-face 
    font-family="Helvetica-3-Thin"
    font-weight="100"
    font-style="italic"
    font-stretch="normal"
    units-per-em="1000"
    panose-1="2 0 2 3 0 0 0 0 0 0"
    ascent="800"
    descent="-200"
    x-height="512"
    cap-height="712"
    bbox="-144 -214 1046 909"
    underline-thickness="50"
    underline-position="-100"
    slope="-12"
    unicode-range="U+0020-U+2265"
  />
<missing-glyph horiz-adv-x="1000" 
 />
    <glyph glyph-name=".notdef" horiz-adv-x="1000" 
 />
    <glyph glyph-name="space" unicode=" " horiz-adv-x="278" 
 />
    <glyph glyph-name="exclam" unicode="!" horiz-adv-x="204" 
d="M75 98l-21 -98h-47l21 98h47zM204 712l-47 -219l-74 -314h-29l60 315l46 218h44z" />
    <glyph glyph-name="quotedbl" unicode="&#x22;" horiz-adv-x="315" 
d="M129 437h-28l53 275h39zM269 437h-29l53 275h39z" />
    <glyph glyph-name="numbersign" unicode="#" 
d="M127 0h-37l47 217h-123l7 33h123l40 188h-123l7 32h122l46 215h36l-46 -215h155l46 215h36l-45 -215h122l-7 -32h-122l-40 -188h122l-7 -33h-122l-46 -217h-36l46 217h-156zM334 250l40 188h-155l-40 -188h155z" />
    <glyph glyph-name="dollar" unicode="$" 
d="M381 775l-16.999 -75.999c56 -6 99.833 -23.833 131.5 -53.5s47.5 -71.834 47.5 -126.501c0 -5.33301 -0.333008 -10.666 -1 -15.999h-38v15c0 86 -49 135 -147 147l-62 -294c29.333 -8.66699 53.166 -17 71.499 -25s37.833 -19 58.5 -33s36.167 -31.667 46.5 -53
s15.5 -46.333 15.5 -75c0 -64.667 -24.167 -114.334 -72.5 -149.001s-106.5 -52 -174.5 -52c-8.66699 0 -17 0.333008 -25 1l-20 -90h-27l19 91c-60.667 5.33301 -108.167 25.833 -142.5 61.5s-51.5 81.834 -51.5 138.501c0 8 0.333008 15.333 1 22h40
c-0.666992 -6.66699 -1 -13.667 -1 -21c0 -48 13.833 -86.5 41.5 -115.5s67.5 -46.5 119.5 -52.5l68 323c-65.333 20.667 -111.333 43.667 -138 69s-40 58.666 -40 99.999c0 56 21.333 101.667 64 137s98 53 166 53h23l15 74h29zM269.001 380.001l61 287
c-6 0.666992 -12.333 1 -19 1c-54.667 0 -99.5 -14.5 -134.5 -43.5s-52.5 -65.833 -52.5 -110.5c0 -32.667 10.833 -59 32.5 -79s59.167 -38.333 112.5 -55zM288.001 334.001l-66.999 -316c8 -0.666992 16 -1 24 -1c54 0 101.167 14.5 141.5 43.5s60.5 69.5 60.5 121.5
c0 30 -8.33301 55.667 -25 77s-35.334 36.833 -56.001 46.5s-46.667 19.167 -78 28.5z" />
    <glyph glyph-name="percent" unicode="%" horiz-adv-x="759" 
d="M664 724l-532 -755h-39l532 755h39zM372 571c0 -56 -16.332 -106.833 -48.999 -152.5s-75.667 -68.5 -129 -68.5c-40.667 0 -73.334 12.5 -98.001 37.5s-37 58.167 -37 99.5c0 62 17.333 113.833 52 155.5s78 62.5 130 62.5c40.667 0 72.667 -12 96 -36
s35 -56.667 35 -98zM238.001 675c-44.667 0 -79.666 -19.1689 -104.999 -57.502s-38 -81.166 -38 -128.499c0 -33.333 8.83301 -59.666 26.5 -78.999s42.167 -29 73.5 -29c43.333 0 77.666 19.667 102.999 59s38 82 38 128c0 32.667 -8.5 58.667 -25.5 78
s-41.167 29 -72.5 29zM704.002 208.998c0 -56 -16.332 -106.833 -48.999 -152.5s-75.667 -68.5 -129 -68.5c-40.667 0 -73.334 12.5 -98.001 37.5s-37 58.167 -37 99.5c0 62 17.333 113.833 52 155.5s78 62.5 130 62.5c40.667 0 72.667 -12 96 -36s35 -56.667 35 -98z
M570.003 312.998c-44.667 0 -79.666 -19.1689 -104.999 -57.502s-38 -81.166 -38 -128.499c0 -33.333 8.83301 -59.666 26.5 -78.999s42.167 -29 73.5 -29c43.333 0 77.666 19.667 102.999 59s38 82 38 128c0 32.667 -8.5 58.667 -25.5 78s-41.167 29 -72.5 29z" />
    <glyph glyph-name="ampersand" unicode="&#x26;" horiz-adv-x="593" 
d="M511 293c-9.33301 -52.667 -32.333 -106.666 -69 -161.999l86 -131h-46l-66 100c-56.667 -76.667 -127.334 -115 -212.001 -115c-55.333 0 -100.666 16.167 -135.999 48.5s-53 73.833 -53 124.5c0 19.333 2 37.166 6 53.499s10.833 31.5 20.5 45.5s18.5 25.667 26.5 35
s20.5 19.5 37.5 30.5l38 24c8.33301 5 23 12.833 44 23.5s34.5 17.667 40.5 21c-44.667 63.333 -67 119 -67 167c0 43.333 14.667 78.666 44 105.999s67 41 113 41c43.333 0 78.5 -11.833 105.5 -35.5s40.5 -54.167 40.5 -91.5c0 -23.333 -4.5 -44.666 -13.5 -63.999
s-24 -37.5 -45 -54.5s-37.667 -29.5 -50 -37.5s-32.5 -19.667 -60.5 -35c-2 -1.33301 -3.66699 -2.33301 -5 -3s-2.83301 -1.5 -4.5 -2.5s-3.16699 -1.83301 -4.5 -2.5l140 -216c27.333 48.667 44.333 92 51 130h39zM262 408.001c21.333 10.667 39.332 20.168 53.999 28.501
s31.834 19.666 51.501 33.999s34.667 30.333 45 48s15.5 36.167 15.5 55.5c0 28.667 -10.167 52.167 -30.5 70.5s-46.833 27.5 -79.5 27.5c-34.667 0 -63.167 -10.5 -85.5 -31.5s-33.5 -47.833 -33.5 -80.5c0 -17.333 3.66699 -36 11 -56s14.5 -35.833 21.5 -47.5z
M246.999 362.002l-42.002 -22.501c-22 -11.667 -37.333 -20 -46 -25s-21.5 -13.833 -38.5 -26.5s-29.167 -24.167 -36.5 -34.5s-14.166 -23.666 -20.499 -39.999s-9.5 -33.5 -9.5 -51.5c0 -42 14.333 -76.333 43 -103s65.334 -40 110.001 -40c35.333 0 70.333 10.333 105 31
s62.667 48 84 82z" />
    <glyph glyph-name="quotesingle" unicode="'" horiz-adv-x="204" 
d="M149 437h-29l54 275h38z" />
    <glyph glyph-name="parenleft" unicode="(" horiz-adv-x="241" 
d="M310 718c-152 -186 -228 -391 -228 -615c0 -103.333 15 -199.333 45 -288h-31c-35.333 94.667 -53 200 -53 316c0 212 76.333 407.667 229 587h38z" />
    <glyph glyph-name="parenright" unicode=")" horiz-adv-x="241" 
d="M122 718c34.667 -90.667 52 -194.333 52 -311c0 -216.667 -76.333 -414 -229 -592h-38c152.667 182 229 387 229 615c0 98.667 -15 194.667 -45 288h31z" />
    <glyph glyph-name="asterisk" unicode="*" horiz-adv-x="352" 
d="M263 723l-28 -132l124 37l5 -28l-123 -36l69 -102l-26 -16l-72 108l-93 -98l-22 20l92 95l-105 59l15 25l107 -61l28 131z" />
    <glyph glyph-name="plus" unicode="+" horiz-adv-x="600" 
d="M271 29v225h-227v33h227v224h35v-224h227v-33h-227v-225h-35z" />
    <glyph glyph-name="comma" unicode="," horiz-adv-x="278" 
d="M133 102l-21 -99.998c-8 -36.667 -18.667 -65 -32 -85s-35.666 -35 -66.999 -45l7 33c13.333 4.66699 24.166 12.667 32.499 24s14 21.666 17 30.999s6.5 22.666 10.5 39.999h-18l22 102h49z" />
    <glyph glyph-name="hyphen" unicode="-" horiz-adv-x="352" 
d="M273 290l-8 -39h-216l8 39h216z" />
    <glyph glyph-name="period" unicode="." horiz-adv-x="278" 
d="M120 102l-22 -102h-50l22 102h50z" />
    <glyph glyph-name="slash" unicode="/" horiz-adv-x="333" 
d="M385 718l-411 -727h-39l411 727h39z" />
    <glyph glyph-name="zero" unicode="0" 
d="M532 460c0 -48.667 -5.83398 -99.167 -17.501 -151.5s-29.167 -103.5 -52.5 -153.5s-55.666 -91 -96.999 -123s-88.333 -48 -141 -48c-65.333 0 -115.5 21 -150.5 63s-52.5 101.667 -52.5 179c0 48.667 6 99 18 151s29.667 102.667 53 152s55.833 89.833 97.5 121.5
s88.5 47.5 140.5 47.5c68.667 0 119.5 -21.667 152.5 -65s49.5 -101 49.5 -173zM328.999 663c-37.333 0 -71.499 -10.502 -102.499 -31.502s-56.333 -47.667 -76 -80s-36.5 -68.666 -50.5 -108.999s-23.833 -79.5 -29.5 -117.5s-8.5 -74 -8.5 -108
c0 -62 14.5 -110.333 43.5 -145s69.167 -52 120.5 -52c45.333 0 86 15.5 122 46.5s63.833 70 83.5 117s34.5 94.333 44.5 142s15 91.834 15 132.501c0 60 -12.833 109.167 -38.5 147.5s-66.834 57.5 -123.501 57.5z" />
    <glyph glyph-name="one" unicode="1" 
d="M403 688l-147 -688h-42l133 620c-60 -50.667 -128 -81.667 -204 -93l7 35c43.333 6.66699 80.833 20 112.5 40s66.167 48.667 103.5 86h37z" />
    <glyph glyph-name="two" unicode="2" 
d="M444 37l-6.99805 -37h-453c4.66699 57.333 26.5 106.5 65.5 147.5s89.833 78.5 152.5 112.5c7.33301 4 22.833 12 46.5 24s41.667 21.5 54 28.5l50.5 30c21.333 13 38.166 25.333 50.499 37s25.333 25.167 39 40.5s23.5 31.666 29.5 48.999s9 35.333 9 54
c0 42 -14.5 75.667 -43.5 101s-67.833 38 -116.5 38c-56 0 -101.167 -17.333 -135.5 -52s-53.833 -83 -58.5 -145h-40c5.33301 72.667 29 129.667 71 171s97 62 165 62c60.667 0 109 -15.833 145 -47.5s54 -74.167 54 -127.5c0 -21.333 -3.16699 -41.666 -9.5 -60.999
s-16.333 -37.5 -30 -54.5s-26.834 -31.833 -39.501 -44.5s-30.334 -26.167 -53.001 -40.5s-40.667 -25.333 -54 -33s-32.833 -18.167 -58.5 -31.5l-51.5 -27c-32 -17.333 -59.333 -33.666 -82 -48.999s-45.667 -36.333 -69 -63s-38 -54.334 -44 -83.001
c14.667 0 152.334 0.333008 413.001 1z" />
    <glyph glyph-name="three" unicode="3" 
d="M57 225c-2.66699 -13.333 -4 -28.001 -4 -44.001c0 -48.667 16 -87.667 48 -117s74.667 -44 128 -44c56.667 0 105.167 17.5 145.5 52.5s60.5 80.5 60.5 136.5c0 89.333 -60.667 134 -182 134h-19l8 35c13.333 -0.666992 26.666 -1 39.999 -1c64.667 0 114.667 13 150 39
s53 63 53 111c0 40.667 -14.667 73.334 -44 98.001s-68 37 -116 37c-51.333 0 -94.166 -15.833 -128.499 -47.5s-55.5 -74.834 -63.5 -129.501h-40c10 66.667 35.5 118.667 76.5 156s93.167 56 156.5 56c59.333 0 107.5 -15.333 144.5 -46s55.5 -71 55.5 -121
c0 -46.667 -14.667 -85.167 -44 -115.5s-69.333 -48.833 -120 -55.5c36 -9.33301 64.5 -26.666 85.5 -51.999s31.5 -57.666 31.5 -96.999c0 -70.667 -24.833 -125.834 -74.5 -165.501s-110.5 -59.5 -182.5 -59.5c-64 0 -114.833 17.667 -152.5 53s-56.5 83.333 -56.5 144
c0 16 1.33301 30.333 4 43h40z" />
    <glyph glyph-name="four" unicode="4" 
d="M495 210l-7 -34h-114l-37 -176h-41l37 176h-332l8 40l433 474h40l-101 -480h114zM341 210l67 316.999c9.33301 46.667 17 81.334 23 104.001l-383 -421h293z" />
    <glyph glyph-name="five" unicode="5" 
d="M539 685l-8.99902 -38h-321l-94 -259c45.333 47.333 101.333 71 168 71c62 0 111.5 -18.167 148.5 -54.5s55.5 -84.833 55.5 -145.5c0 -77.333 -24 -142.5 -72 -195.5s-110.667 -79.5 -188 -79.5c-63.333 0 -113.5 16.833 -150.5 50.5s-55.5 79.834 -55.5 138.501
c0 6 1 17 3 33h40c-1.33301 -11.333 -2 -22.333 -2 -33c0 -49.333 15.333 -87.5 46 -114.5s71 -40.5 121 -40.5c61.333 0 112.333 22.167 153 66.5s61 100.166 61 167.499c0 52.667 -15.333 94.167 -46 124.5s-72.334 45.5 -125.001 45.5c-70 0 -126 -28.333 -168 -85l-41 2
l120 346h356z" />
    <glyph glyph-name="six" unicode="6" 
d="M540 517l-41.002 0.000976562c-3.33301 98 -53.333 147 -150 147c-28.667 0 -55 -4.66699 -79 -14s-44.667 -23.5 -62 -42.5s-32.166 -38 -44.499 -57s-23.833 -43.333 -34.5 -73s-18.667 -54.167 -24 -73.5s-11.666 -44.333 -18.999 -75c21.333 39.333 49.333 70 84 92
s73.334 33 116.001 33c62.667 0 113.334 -19 152.001 -57s58 -87.667 58 -149c0 -76 -23.333 -139 -70 -189s-105.334 -75 -176.001 -75c-68.667 0 -121.667 20.667 -159 62s-56 99.666 -56 174.999c0 54.667 8.83301 115.167 26.5 181.5s40.167 121.833 67.5 166.5
c53.333 86.667 126.666 130 219.999 130c60 0 106.833 -15.667 140.5 -47s50.5 -75.333 50.5 -132v-3zM281.998 419.001c-58.667 0 -107.667 -20.667 -147 -62s-59 -93 -59 -155c0 -54.667 16 -98.834 48 -132.501s74.333 -50.5 127 -50.5c58.667 0 107.167 21.667 145.5 65
s57.5 98 57.5 164c0 50.667 -16 91.834 -48 123.501s-73.333 47.5 -124 47.5z" />
    <glyph glyph-name="seven" unicode="7" 
d="M560 685l-9.99902 -37c-93.333 -96.667 -172.833 -197.167 -238.5 -301.5s-119.834 -219.833 -162.501 -346.5h-45c31.333 107.333 85.333 222 162 344s157 222.667 241 302h-390l8 39h435z" />
    <glyph glyph-name="eight" unicode="8" 
d="M358 363c40 -10 71.666 -29.332 94.999 -57.999s35 -64.334 35 -107.001c0 -65.333 -25.333 -117 -76 -155s-109.667 -57 -177 -57c-68.667 0 -123 17 -163 51s-60 80.667 -60 140c0 55.333 17.833 100.5 53.5 135.5s84.834 55.5 147.501 61.5
c-73.333 25.333 -110 73 -110 143c0 53.333 20.333 96.833 61 130.5s93.667 50.5 159 50.5c61.333 0 110.333 -14.833 147 -44.5s55 -69.5 55 -119.5c0 -44.667 -15.5 -83 -46.5 -115s-71.167 -50.667 -120.5 -56zM324.999 664.001
c-54.667 0 -98.6689 -13.668 -132.002 -41.001s-50 -63.666 -50 -108.999c0 -40 14.833 -71.667 44.5 -95s69.834 -35 120.501 -35c52.667 0 95.334 13.667 128.001 41s49 63.333 49 108c0 43.333 -15.5 76 -46.5 98s-68.833 33 -113.5 33zM260.997 351
c-63.333 0 -113.668 -15.667 -151.001 -47s-56 -73.666 -56 -126.999c0 -48.667 16.667 -87 50 -115s79.333 -42 138 -42c60.667 0 109.834 16.667 147.501 50s56.5 76.666 56.5 129.999c0 50 -18 87.667 -54 113s-79.667 38 -131 38z" />
    <glyph glyph-name="nine" unicode="9" 
d="M17 166l38.999 0.00292969v-6c0 -44 13.5 -78.5 40.5 -103.5s64.167 -37.5 111.5 -37.5c34.667 0 65.834 7.5 93.501 22.5s50.334 33.167 68.001 54.5s33.5 48.5 47.5 81.5s24.5 62.667 31.5 89s13.833 56.833 20.5 91.5c-45.333 -86.667 -113 -130 -203 -130
c-62 0 -112.167 19.167 -150.5 57.5s-57.5 88.5 -57.5 150.5c0 73.333 23 135.5 69 186.5s105.667 76.5 179 76.5c69.333 0 122 -20.833 158 -62.5s54 -98.834 54 -171.501c0 -72 -12.333 -148.333 -37 -229s-59.334 -143.334 -104.001 -188.001
c-43.333 -43.333 -100 -65 -170 -65c-60.667 0 -107.5 15.667 -140.5 47s-49.5 75.666 -49.5 132.999v3zM303.999 662.003c-61.333 0 -110.833 -21.833 -148.5 -65.5s-56.5 -97.167 -56.5 -160.5c0 -51.333 15.833 -92.833 47.5 -124.5s73.834 -47.5 126.501 -47.5
c57.333 0 105.666 21.333 144.999 64s59 94.667 59 156c0 56.667 -15 100.5 -45 131.5s-72.667 46.5 -128 46.5z" />
    <glyph glyph-name="colon" unicode=":" horiz-adv-x="278" 
d="M125 102l-22 -102h-50l22 102h50zM213 512l-22 -102h-50l22 102h50z" />
    <glyph glyph-name="semicolon" unicode=";" horiz-adv-x="278" 
d="M213 512l-22 -102h-50l22 102h50zM125 102l-21 -99.998c-8 -36.667 -18.667 -65 -32 -85s-35.666 -35 -66.999 -45l7 33c13.333 4.66699 24.166 12.667 32.499 24s14 21.666 17 30.999s6.5 22.666 10.5 39.999h-18l22 102h49z" />
    <glyph glyph-name="less" unicode="&#x3c;" horiz-adv-x="600" 
d="M32 252v36l489 203v-36l-447 -185l447 -183v-37z" />
    <glyph glyph-name="equal" unicode="=" horiz-adv-x="600" 
d="M55 343v33h489v-33h-489zM55 160v33h489v-33h-489z" />
    <glyph glyph-name="greater" unicode="&#x3e;" horiz-adv-x="600" 
d="M545 252l-489 -202v37l448 183l-448 185v36l489 -203v-36z" />
    <glyph glyph-name="question" unicode="?" horiz-adv-x="519" 
d="M224 98l-21 -98h-47l22 98h46zM237 181l-39.001 -0.00292969c0.666992 2 3.16699 11.833 7.5 29.5s7.5 29.834 9.5 36.501s5.5 16.167 10.5 28.5s10.167 22.5 15.5 30.5c10.667 15.333 21.167 27.333 31.5 36s33.5 24.667 69.5 48c36.667 24 65.167 48.833 85.5 74.5
s30.5 56.834 30.5 93.501c0 40.667 -13.167 72.667 -39.5 96s-62.166 35 -107.499 35c-110.667 0 -174 -65.667 -190 -197h-39c6.66699 74.667 30 132.167 70 172.5s93.333 60.5 160 60.5c57.333 0 103.166 -15 137.499 -45s51.5 -70.333 51.5 -121
c0 -72.667 -40.333 -135 -121 -187c-3.33301 -2.66699 -11.333 -8 -24 -16s-21.667 -13.833 -27 -17.5s-12.5 -9.16699 -21.5 -16.5s-16.667 -14.666 -23 -21.999s-11.833 -15.333 -16.5 -24c-9.33301 -15.333 -19.666 -47 -30.999 -95z" />
    <glyph glyph-name="at" unicode="@" horiz-adv-x="800" 
d="M708 110l15.002 -19.998c-50.667 -35.333 -99.667 -61.333 -147 -78s-100.333 -25 -159 -25c-110 0 -202.5 32.5 -277.5 97.5s-112.5 150.833 -112.5 257.5c0 112.667 40.167 204.5 120.5 275.5s176.5 106.5 288.5 106.5c94 0 173 -26.5 237 -79.5s96 -124.5 96 -214.5
c0 -62.667 -18.667 -121.5 -56 -176.5s-85.666 -82.5 -144.999 -82.5c-20.667 0 -38 6 -52 18s-21 28 -21 48c0 4 2.66699 19.333 8 46c-35.333 -74.667 -85.333 -112 -150 -112c-42 0 -74.667 14.167 -98 42.5s-35 63.5 -35 105.5c0 57.333 19 111.166 57 161.499
s84.667 75.5 140 75.5c36.667 0 66 -10.5 88 -31.5s34 -49.167 36 -84.5l31 103h35l-59 -191c-16.667 -57.333 -25 -94 -25 -110c0 -14.667 5 -25.834 15 -33.501s22.667 -11.5 38 -11.5c33.333 0 63.166 13.5 89.499 40.5s45.666 58 57.999 93s18.5 68.5 18.5 100.5
c0 84 -30 149.333 -90 196s-132.333 70 -217 70c-105.333 0 -195.166 -33.5 -269.499 -100.5s-111.5 -151.833 -111.5 -254.5c0 -66.667 17.167 -125.5 51.5 -176.5s78.666 -89.167 132.999 -114.5s113.833 -38 178.5 -38c55.333 0 105.166 7.83301 149.499 23.5
s91.5 40.167 141.5 73.5zM522.002 422.002c0 31.333 -8.83301 57.166 -26.5 77.499s-42.167 30.5 -73.5 30.5c-46 0 -84.667 -23.167 -116 -69.5s-47 -94.166 -47 -143.499c0 -34 8.66699 -62.333 26 -85s42.333 -34 75 -34c36 0 66.333 14.167 91 42.5
s43.667 62.5 57 102.5c9.33301 30 14 56.333 14 79z" />
    <glyph glyph-name="A" unicode="A" horiz-adv-x="611" 
d="M411 712l132 -712h-45l-41 230h-342l-140 -230h-50l440 712h46zM381 672c-7.33301 -12 -18.167 -31 -32.5 -57s-25.5 -45 -33.5 -57l-179 -292h315l-53 295c-9.33301 49.333 -15 86.333 -17 111z" />
    <glyph glyph-name="B" unicode="B" horiz-adv-x="630" 
d="M148 712h226c26.667 0 49.5 -0.666992 68.5 -2s40 -5.16602 63 -11.499s41.667 -15 56 -26s26.5 -26.667 36.5 -47s15 -44.833 15 -73.5c0 -48.667 -15.167 -89.334 -45.5 -122.001s-71.833 -52.667 -124.5 -60c41.333 -7.33301 73.833 -23.5 97.5 -48.5
s35.5 -58.833 35.5 -101.5c0 -62.667 -22 -115 -66 -157c-20.667 -19.333 -45.167 -34 -73.5 -44s-52.333 -15.667 -72 -17s-48.5 -2 -86.5 -2h-280zM183 674l-61 -288h219c152.667 0 229 54.667 229 164c0 22.667 -4 42 -12 58s-17.5 28.167 -28.5 36.5
s-26 14.833 -45 19.5s-36 7.5 -51 8.5s-33.833 1.5 -56.5 1.5h-194zM114 351l-66.002 -315h215c64.667 0 113.334 4.33301 146.001 13c36.667 9.33301 66.5 29.833 89.5 61.5s34.5 67.834 34.5 108.501c0 23.333 -4 43.333 -12 60s-18 29.5 -30 38.5
s-27.667 16.167 -47 21.5s-37.166 8.66602 -53.499 9.99902s-35.5 2 -57.5 2h-219z" />
    <glyph glyph-name="C" unicode="C" horiz-adv-x="704" 
d="M655 248c-20 -80 -60.1699 -144.165 -120.503 -192.498s-131.5 -72.5 -213.5 -72.5c-85.333 0 -153.166 26.667 -203.499 80s-75.5 125.666 -75.5 216.999c0 77.333 14.667 149.333 44 216s73.833 121.667 133.5 165s128.834 65 207.501 65s142.334 -21.333 191.001 -64
s73.334 -99 74.001 -169h-43c-4 61.333 -25.333 109.166 -64 143.499s-91.334 51.5 -158.001 51.5c-68.667 0 -129.5 -20.167 -182.5 -60.5s-92.5 -90.833 -118.5 -151.5s-39 -125.334 -39 -194.001c0 -79.333 21.167 -142.666 63.5 -189.999s99.5 -71 171.5 -71
c69.333 0 129.833 20.333 181.5 61s87.5 96 107.5 166h44z" />
    <glyph glyph-name="D" unicode="D" horiz-adv-x="685" 
d="M149 712h195c90.667 0 156 -13.667 196 -41c69.333 -46 104 -125.667 104 -239c0 -70.667 -13.833 -137.5 -41.5 -200.5s-66.167 -114.5 -115.5 -154.5c-40 -32.667 -80.5 -53.667 -121.5 -63s-93.167 -14 -156.5 -14h-209zM184 674l-133.001 -636h223
c68 0 127.5 19.667 178.5 59s88.667 88.5 113 147.5s36.5 122.167 36.5 189.5c0 84 -20.167 145 -60.5 183s-103.166 57 -188.499 57h-169z" />
    <glyph glyph-name="E" unicode="E" 
d="M614 712l-8 -38h-422l-60 -286h394l-8 -37h-394l-66 -313h435l-8 -38h-479l151 712h465z" />
    <glyph glyph-name="F" unicode="F" horiz-adv-x="519" 
d="M596 712l-8 -39h-404l-60 -285h363l-8 -37h-363l-75 -351h-43l150 712h448z" />
    <glyph glyph-name="G" unicode="G" horiz-adv-x="741" 
d="M692 348l-72.001 -347.999h-32l15 88c3.33301 20 8.33301 44.667 15 74c-65.333 -118.667 -161 -178 -287 -178c-91.333 0 -162 27 -212 81s-75 127.667 -75 221c0 78.667 15.333 151.167 46 217.5s76.5 120.166 137.5 161.499s131.167 62 210.5 62
s143 -20.833 191 -62.5s73.333 -97.834 76 -168.501h-43c-5.33301 62.667 -27.666 110.667 -66.999 144s-92.666 50 -159.999 50c-70.667 0 -133 -20.333 -187 -61s-94.333 -91.5 -121 -152.5s-40 -126.167 -40 -195.5c0 -80.667 22.167 -144.167 66.5 -190.5
s104.833 -69.5 181.5 -69.5c85.333 0 153.666 26.333 204.999 79s87 123.334 107 212.001h-262l8 36h299z" />
    <glyph glyph-name="H" unicode="H" horiz-adv-x="667" 
d="M679 712l-150 -712h-44l75 353h-445l-76 -353h-43l151 712h44l-68 -322h445l68 322h43z" />
    <glyph glyph-name="I" unicode="I" horiz-adv-x="185" 
d="M193 712l-151 -712h-44l151 712h44z" />
    <glyph glyph-name="J" unicode="J" horiz-adv-x="481" 
d="M497 712l-105.996 -500.999c-7.33301 -36 -15.833 -66.333 -25.5 -91s-22.834 -47.834 -39.501 -69.501s-38.334 -38 -65.001 -49s-58.334 -16.5 -95.001 -16.5c-56.667 0 -100.667 13.833 -132 41.5s-47 66.5 -47 116.5c0 23.333 3.33301 50.333 10 81h42
c-6.66699 -39.333 -10 -66 -10 -80c0 -39.333 11.833 -69.666 35.5 -90.999s57.5 -32 101.5 -32c30 0 55.833 4.66699 77.5 14s39.167 23.666 52.5 42.999s23.666 39 30.999 59s14 44.667 20 74l107 501h43z" />
    <glyph glyph-name="K" unicode="K" horiz-adv-x="611" 
d="M678 712l-381 -301l273 -411h-49l-257 385l-171 -133l-52 -252h-43l149 712h43l-85 -405l511 405h62z" />
    <glyph glyph-name="L" unicode="L" horiz-adv-x="500" 
d="M193 712l-143 -674h401l-8 -38h-445l151 712h44z" />
    <glyph glyph-name="M" unicode="M" horiz-adv-x="815" 
d="M830 712l-152.001 -712h-42l105 488c17.333 81.333 32 142 44 182l-40 -65.5l-39 -64.5l-346 -540h-43l-115 534c-7.33301 32.667 -16 78 -26 136c-4.66699 -22 -11.167 -55.667 -19.5 -101s-14.833 -79.333 -19.5 -102l-99 -467h-43l152 712h59l113 -529
c2.66699 -13.333 6.83398 -36 12.501 -68s10.5 -56.333 14.5 -73c7.33301 14.667 33 56.667 77 126l346 544h61z" />
    <glyph glyph-name="N" unicode="N" horiz-adv-x="685" 
d="M695 712l-150.999 -711.999h-48l-282 581c-6.66699 13.333 -19.334 41.666 -38.001 84.999c-4.66699 -33.333 -11.667 -72 -21 -116l-116 -550h-43l151 712h50l252 -521c24.667 -50.667 46.667 -99 66 -145l138 666h42z" />
    <glyph glyph-name="O" unicode="O" horiz-adv-x="741" 
d="M711 437c0 -58 -8.33301 -113.832 -25 -167.499s-40.667 -102 -72 -145s-71.666 -77.333 -120.999 -103s-104 -38.5 -164 -38.5c-88.667 0 -159 27.167 -211 81.5s-78 127.833 -78 220.5c0 78.667 14.5 151.167 43.5 217.5s73.167 120.666 132.5 162.999
s128.666 63.5 207.999 63.5c87.333 0 157 -26.5 209 -79.5s78 -123.833 78 -212.5zM419 691.001c-53.333 0 -101.833 -11.666 -145.5 -34.999s-79 -54.333 -106 -93s-47.833 -82 -62.5 -130s-22 -97.333 -22 -148c0 -80.667 22.5 -145 67.5 -193s105.167 -72 180.5 -72
c42 0 81.333 8 118 24s68.167 37.5 94.5 64.5s49 58.167 68 93.5s33.167 72.5 42.5 111.5s14 77.833 14 116.5c0 79.333 -22 142.666 -66 189.999s-105 71 -183 71z" />
    <glyph glyph-name="P" unicode="P" horiz-adv-x="593" 
d="M147 712h240c33.333 0 62.166 -2.33301 86.499 -7s47.666 -13 69.999 -25s39.333 -30 51 -54s17.5 -53.667 17.5 -89c0 -42.667 -10.667 -81.5 -32 -116.5s-49.666 -61.167 -84.999 -78.5c-35.333 -16.667 -93.666 -25 -174.999 -25h-213l-67 -317h-44zM183 674
l-68.001 -320h203c84 0 142.667 10.667 176 32c22.667 14.667 40.834 35.5 54.501 62.5s20.5 55.833 20.5 86.5c0 54.667 -16.833 91.5 -50.5 110.5s-81.167 28.5 -142.5 28.5h-193z" />
    <glyph glyph-name="Q" unicode="Q" horiz-adv-x="741" 
d="M645 -28l-26 -27.0029l-100 93c-56.667 -36.667 -120.334 -55 -191.001 -55c-89.333 0 -159.666 27.833 -210.999 83.5s-77 128.5 -77 218.5c0 56.667 8.5 111.334 25.5 164.001s41.167 99.834 72.5 141.501s71.5 75.167 120.5 100.5s103.167 38 162.5 38
c89.333 0 160 -26.667 212 -80s78 -125.666 78 -216.999c0 -73.333 -14.667 -143.833 -44 -211.5s-68.333 -121.5 -117 -161.5zM419 180.997l103.001 -93.999c46.667 37.333 82.5 87.166 107.5 149.499s37.5 125.5 37.5 189.5c0 81.333 -22.167 145.833 -66.5 193.5
s-104.166 71.5 -179.499 71.5c-68.667 0 -129.334 -20 -182.001 -60s-91.834 -90 -117.501 -150s-38.5 -123.667 -38.5 -191c0 -79.333 22.167 -143.833 66.5 -193.5s106.5 -74.5 186.5 -74.5c56.667 0 107.667 14.667 153 44l-96 88z" />
    <glyph glyph-name="R" unicode="R" horiz-adv-x="630" 
d="M150 712l242.002 0.00195312c32.667 0 61.5 -2.33301 86.5 -7s49 -12.834 72 -24.501s40.667 -29.334 53 -53.001s18.5 -53.167 18.5 -88.5c0 -56.667 -18.333 -103.5 -55 -140.5s-85 -57.167 -145 -60.5c39.333 -6.66699 66.5 -21.5 81.5 -44.5s22.5 -55.167 22.5 -96.5
c0 -14 -0.833008 -34.667 -2.5 -62s-2.5 -48 -2.5 -62c0 -28 3.33301 -52.333 10 -73h-45c-5.33301 20.667 -8 44.334 -8 71.001c0 15.333 0.833008 38.666 2.5 69.999s2.5 51 2.5 59c0 28 -3.83301 50.667 -11.5 68s-20.334 29.833 -38.001 37.5s-35.334 12.667 -53.001 15
s-41.5 3.5 -71.5 3.5h-197l-69 -324h-44zM185.002 673.002l-66 -312h211c49.333 0 87.833 3 115.5 9s51.167 16.667 70.5 32c19.333 14.667 34.666 34 45.999 58s17 49 17 75c0 23.333 -3.5 43.333 -10.5 60s-16.333 30 -28 40s-26.167 17.833 -43.5 23.5
s-34.666 9.5 -51.999 11.5s-37.333 3 -60 3h-200z" />
    <glyph glyph-name="S" unicode="S" horiz-adv-x="630" 
d="M605 507l-41.0039 0.00195312v10c0 112.667 -68 169 -204 169c-63.333 0 -113.5 -13.833 -150.5 -41.5s-55.5 -64.834 -55.5 -111.501c0 -14 2.16699 -27 6.5 -39s9.33301 -22.333 15 -31s14.334 -17.167 26.001 -25.5s21.5 -14.833 29.5 -19.5s20 -9.83398 36 -15.501
s27.667 -9.66699 35 -12s19.833 -6 37.5 -11l33.5 -9.5c57.333 -16 100.833 -36.5 130.5 -61.5s44.5 -63.5 44.5 -115.5c0 -62.667 -24.5 -112.834 -73.5 -150.501s-113.833 -56.5 -194.5 -56.5c-83.333 0 -148 19.667 -194 59s-69 95 -69 167
c0 2.66699 0.166992 6.33398 0.5 11.001s0.5 9 0.5 13h42v-19c0 -66.667 19.667 -115.834 59 -147.501s93.666 -47.5 162.999 -47.5c67.333 0 121.5 15.5 162.5 46.5s61.5 72.167 61.5 123.5c0 39.333 -12.667 68.833 -38 88.5s-60.666 36.167 -105.999 49.5l-36 10.5
c-19.333 5.66699 -32.333 9.66699 -39 12l-36.5 12.5c-17.667 6 -30.167 11.333 -37.5 16s-17.666 10.834 -30.999 18.501s-23.166 15.667 -29.499 24s-13.166 17.833 -20.499 28.5s-12.5 22.667 -15.5 36s-4.5 27.666 -4.5 42.999c0 58.667 22.333 105.334 67 140.001
s105 52 181 52c80 0 141 -16.833 183 -50.5s63 -82.5 63 -146.5c0 -6 -0.333008 -12.333 -1 -19z" />
    <glyph glyph-name="T" unicode="T" horiz-adv-x="519" 
d="M611 712l-8 -37h-248l-142 -675h-44l143 675h-257l8 37h548z" />
    <glyph glyph-name="U" unicode="U" horiz-adv-x="667" 
d="M681 712l-100.999 -480.999c-34.667 -163.333 -134.334 -245 -299.001 -245c-68.667 0 -126.5 17 -173.5 51s-70.5 84 -70.5 150c0 31.333 4.33301 66.333 13 105l89 420h44l-91 -430c-8 -37.333 -12 -68.666 -12 -93.999c0 -51.333 18 -92 54 -122s85.333 -45 148 -45
c71.333 0 129 19 173 57c18 15.333 33.167 34.666 45.5 57.999s21 43.666 26 60.999s10.833 41.333 17.5 72l94 443h43z" />
    <glyph glyph-name="V" unicode="V" horiz-adv-x="574" 
d="M655 712l-416 -712h-53l-119 712h45l86 -531c3.33301 -18 7.33301 -44 12 -78l9 -65c16.667 32 42 77.667 76 137l312 537h48z" />
    <glyph glyph-name="W" unicode="W" horiz-adv-x="907" 
d="M968 712l-350 -712.004h-49l-45 508c-7.33301 82.667 -11.333 137.334 -12 164.001l-36 -76c-16 -34 -28.333 -59.333 -37 -76l-259 -520h-50l-60 712h44l42 -523c2.66699 -31.333 5.33398 -79 8.00098 -143c18 42.667 38.667 87.334 62 134.001l266 532h54l44 -498
c6.66699 -73.333 10.667 -128.666 12 -165.999c23.333 56.667 47.666 110.334 72.999 161.001l248 503h45z" />
    <glyph glyph-name="X" unicode="X" 
d="M630 712l-319.999 -348.999l189 -363h-47l-118 226c-24.667 48 -42.334 84 -53.001 108c-6.66699 -6.66699 -25 -26.667 -55 -60l-252 -274h-54l340 369l-177 343h47l114 -222l46 -93c6.66699 7.33301 20.167 23.166 40.5 47.499s36.5 42.833 48.5 55.5l198 212h53z" />
    <glyph glyph-name="Y" unicode="Y" 
d="M651 712l-361 -419.999l-62 -292h-43l63 299l-192 413h47l129 -282c24.667 -54.667 39 -87.334 43 -98.001l74 89l250 291h52z" />
    <glyph glyph-name="Z" unicode="Z" horiz-adv-x="537" 
d="M597 712l-9 -42.001l-562 -599c-17.333 -19.333 -28.333 -30.666 -33 -33.999c5.33301 0 13.5 0.166992 24.5 0.5s19.5 0.5 25.5 0.5h442l-7 -38h-541l9 44l531 566l63 64h-453l9 38h501z" />
    <glyph glyph-name="bracketleft" unicode="[" horiz-adv-x="241" 
d="M309 715l-7 -33h-101l-176 -826h99l-7 -34h-138l191 893h139z" />
    <glyph glyph-name="backslash" unicode="\" horiz-adv-x="333" 
d="M385 -9h-39l-411 727h39z" />
    <glyph glyph-name="bracketright" unicode="]" horiz-adv-x="241" 
d="M231 715l-192 -894h-139l7 34h101l177 826h-99l7 34h138z" />
    <glyph glyph-name="asciicircum" unicode="^" horiz-adv-x="600" 
d="M116 274l165 411h39l165 -411h-39l-146 372l-145 -372h-39z" />
    <glyph glyph-name="underscore" unicode="_" horiz-adv-x="500" 
d="M0 -125v50h500v-50h-500z" />
    <glyph glyph-name="grave" unicode="`" horiz-adv-x="167" 
d="M169 596h-36l-112 142h49z" />
    <glyph glyph-name="a" unicode="a" horiz-adv-x="500" 
d="M58 365c15.333 56 39.5029 96.832 72.5029 122.499s79.167 38.5 138.5 38.5c53.333 0 94.666 -10.667 123.999 -32s44 -51.333 44 -90c0 -18.667 -4.66699 -48 -14 -88l-36 -157c-11.333 -46.667 -17 -79 -17 -97c0 -21.333 9.33301 -32 28 -32
c6.66699 0 17.667 1.66699 33 5l-6 -33c-17.333 -4 -30.333 -6 -39 -6c-34.667 0 -52 18.333 -52 55c0 12 2.33301 27.333 7 46c-45.333 -74.667 -112 -112 -200 -112c-48.667 0 -86.834 12.333 -114.501 37s-41.5 58.334 -41.5 101.001c0 27.333 6.66699 52.333 20 75
s31.666 40.667 54.999 54c20 11.333 43 19.5 69 24.5s67.333 9.16699 124 12.5c69.333 4.66699 111 15 125 31c12.667 14.667 19 39.667 19 75c0 63.333 -42.667 95 -128 95c-48 0 -85.5 -10 -112.5 -30s-46.5 -51.667 -58.5 -95h-40zM379.003 287.999
c-11.333 -10.667 -27 -17.999 -47 -21.999c-13.333 -2.66699 -49.666 -5.83398 -108.999 -9.50098s-103.333 -12.167 -132 -25.5c-20 -8.66699 -36 -22.667 -48 -42s-18 -40.666 -18 -63.999c0 -33.333 11 -59.5 33 -78.5s52.333 -28.5 91 -28.5
c39.333 0 75.333 10.167 108 30.5s58 48.166 76 83.499c11.333 23.333 22.666 58.333 33.999 105z" />
    <glyph glyph-name="b" unicode="b" 
d="M183 712l-67.001 -315.002c46.667 86.667 114 130 202 130c56.667 0 101.667 -19 135 -57s50 -89.333 50 -154c0 -53.333 -9.83301 -104.666 -29.5 -153.999s-50.5 -91.166 -92.5 -125.499s-90.333 -51.5 -145 -51.5c-48 0 -87.667 13.5 -119 40.5
s-50.666 64.833 -57.999 113.5l-28 -139h-39l151 712h40zM311.999 491.998c-48.667 0 -91.335 -15.832 -128.002 -47.499s-63.167 -69.667 -79.5 -114s-24.5 -90.5 -24.5 -138.5c0 -53.333 13.833 -95.833 41.5 -127.5s64.834 -47.5 111.501 -47.5
c47.333 0 89.333 16.167 126 48.5s63.334 70.666 80.001 114.999s25 89.5 25 135.5c0 52 -12.833 94.333 -38.5 127s-63.5 49 -113.5 49z" />
    <glyph glyph-name="c" unicode="c" horiz-adv-x="519" 
d="M453 164c-18 -54.667 -47.3311 -98.001 -87.998 -130.001s-89.667 -48 -147 -48c-62 0 -110 18.5 -144 55.5s-51 89.167 -51 156.5c0 56 10.333 108.5 31 157.5s52.667 89.833 96 122.5s93.666 49 150.999 49c56 0 100.333 -15 133 -45s49 -70.667 49 -122v-3h-40
c0 42 -12.833 75 -38.5 99s-60.834 36 -105.501 36c-72.667 0 -130.167 -29.5 -172.5 -88.5s-63.5 -126.833 -63.5 -203.5c0 -57.333 13.667 -101.666 41 -132.999s66.333 -47 117 -47c90 0 153.667 48 191 144h41z" />
    <glyph glyph-name="d" unicode="d" 
d="M573 712l-150.002 -712.001h-39l22 100l9 29c-46.667 -96 -115.667 -144 -207 -144c-59.333 0 -105.666 17.833 -138.999 53.5s-50 84.834 -50 147.501c0 54.667 10.333 107.5 31 158.5s52.5 94.167 95.5 129.5s92.833 53 149.5 53c48.667 0 88 -12.5 118 -37.5
s47.667 -60.167 53 -105.5c0.666992 3.33301 1.83398 10.333 3.50098 21s5.16699 28 10.5 52l53 255h40zM296.998 491.999c-50 0 -93.667 -16.001 -131 -48.001s-64.5 -70.5 -81.5 -115.5s-25.5 -91.833 -25.5 -140.5c0 -54 13.667 -95.833 41 -125.5
s65.666 -44.5 114.999 -44.5c36.667 0 70.334 10.5 101.001 31.5s55.167 47.833 73.5 80.5s32.5 67.167 42.5 103.5s15 71.5 15 105.5c0 46.667 -13.5 83.834 -40.5 111.501s-63.5 41.5 -109.5 41.5z" />
    <glyph glyph-name="e" unicode="e" horiz-adv-x="519" 
d="M445 168c-16.667 -58.667 -44.834 -103.83 -84.501 -135.497s-88.167 -47.5 -145.5 -47.5c-63.333 0 -112.666 19.167 -147.999 57.5s-53 92.166 -53 161.499c0 92 25.5 168.833 76.5 230.5s114.5 92.5 190.5 92.5c60 0 107 -18.167 141 -54.5s51 -86.833 51 -151.5
c0 -18.667 -2 -41.334 -6 -68.001h-409c-2.66699 -14 -4 -30.333 -4 -49c0 -58 14.5 -103.5 43.5 -136.5s69.167 -49.5 120.5 -49.5c43.333 0 81.333 13.167 114 39.5s56.667 63.166 72 110.499h41zM63 287.004h368c2 16 3 27.667 3 35c0 54 -13.667 96 -41 126
s-65.666 45 -114.999 45c-52.667 0 -98.334 -18.5 -137.001 -55.5s-64.667 -87.167 -78 -150.5z" />
    <glyph glyph-name="f" unicode="f" horiz-adv-x="241" 
d="M272 512l-8 -35h-107l-102 -477h-40l102 477h-88l7 35h88l13 54c4 16.667 6.66699 28 8 34s4.33301 16 9 30s8.83398 23.833 12.501 29.5s9 13 16 22s14.5 15.333 22.5 19s18 7.16699 30 10.5s25.333 5 40 5c18 0 35.667 -1.33301 53 -4l-6 -36
c-16 2.66699 -29.333 4 -40 4c-19.333 0 -35.333 -2.83301 -48 -8.5s-22.834 -14.834 -30.501 -27.501s-13.167 -24.667 -16.5 -36s-7.33301 -27.666 -12 -48.999l-10 -47h107z" />
    <glyph glyph-name="g" unicode="g" horiz-adv-x="537" 
d="M517 512l-96.9971 -459.001c-8.66699 -40.667 -18.334 -74.667 -29.001 -102s-25.167 -52.833 -43.5 -76.5s-42.333 -41.167 -72 -52.5s-65.167 -17 -106.5 -17c-58 0 -103.167 13 -135.5 39s-48.5 62.333 -48.5 109v11h41v-8c0 -78.667 49 -118 147 -118
c36 0 66.333 5.33301 91 16s44.5 27.334 59.5 50.001s26.5 45 34.5 67s16 51 24 87l16 71c-43.333 -74.667 -104 -112 -182 -112c-59.333 0 -106.333 18.5 -141 55.5s-52 87.167 -52 150.5c0 85.333 24 156.5 72 213.5s108.333 85.5 181 85.5
c49.333 0 89.666 -12.667 120.999 -38s49.666 -60.333 54.999 -105l27 133h38zM279.003 491.999c-60.667 0 -111.667 -25.666 -153 -76.999s-62 -115 -62 -191c0 -52.667 14 -94.5 42 -125.5s66 -46.5 114 -46.5c65.333 0 117 29 155 87s57 121.667 57 191
c0 49.333 -13.5 88.666 -40.5 117.999s-64.5 44 -112.5 44z" />
    <glyph glyph-name="h" unicode="h" horiz-adv-x="519" 
d="M179 712l-66.999 -310c53.333 82 122 123 206 123c44.667 0 81 -12 109 -36s42 -55.667 42 -95c0 -20.667 -5 -54 -15 -100l-63 -294h-40l62 295c9.33301 44.667 14 76.334 14 95.001c0 30.667 -10.833 55 -32.5 73s-50.834 27 -87.501 27
c-42.667 0 -79.834 -11.333 -111.501 -34s-55.667 -49.834 -72 -81.501s-29.166 -68.5 -38.499 -110.5l-57 -264h-40l151 712h40z" />
    <glyph glyph-name="i" unicode="i" horiz-adv-x="167" 
d="M141 512l-109 -512h-40l109 512h40zM184 712l-21 -101h-41l21 101h41z" />
    <glyph glyph-name="j" unicode="j" horiz-adv-x="167" 
d="M141 512l-120 -565c-4.66699 -21.333 -9.16699 -38.5 -13.5 -51.5s-10.833 -26.667 -19.5 -41s-20.5 -24.833 -35.5 -31.5s-33.167 -10 -54.5 -10c-13.333 0 -27.333 1 -42 3l7 36c10 -2 20.667 -3 32 -3c13.333 0 24.833 2.16699 34.5 6.5s17 8.5 22 12.5
s9.83301 12.167 14.5 24.5s7.5 20.833 8.5 25.5s3.5 15.667 7.5 33l118 561h41zM183 712l-21 -101h-41l21 101h41z" />
    <glyph glyph-name="k" unicode="k" horiz-adv-x="463" 
d="M182 712l-101 -472l348 272h57l-263 -204l185 -308h-47l-169 283l-121 -94l-40 -189h-39l151 712h39z" />
    <glyph glyph-name="l" unicode="l" horiz-adv-x="167" 
d="M182 712l-151 -712h-40l151 712h40z" />
    <glyph glyph-name="m" unicode="m" horiz-adv-x="796" 
d="M140 512l-22.999 -106c47.333 80 108.666 120 183.999 120c39.333 0 70.166 -11 92.499 -33s33.5 -52.333 33.5 -91v-2c46 83.333 107.667 125 185 125c41.333 0 75 -11.333 101 -34s39 -51.667 39 -87c0 -22.667 -4.33301 -54 -13 -94l-66 -310h-41l68 316
c6.66699 32.667 10 59.334 10 80.001c0 28 -10 50.5 -30 67.5s-46.333 25.5 -79 25.5c-47.333 0 -88.666 -20 -123.999 -60c-28.667 -32.667 -49.667 -80.667 -63 -144l-61 -285h-41l67 311c7.33301 35.333 11 63 11 83c0 29.333 -9.16699 52.666 -27.5 69.999
s-42.5 26 -72.5 26c-46 0 -87.667 -19.667 -125 -59c-34 -36.667 -58.667 -90 -74 -160l-58 -271h-41l109 512h39z" />
    <glyph glyph-name="n" unicode="n" horiz-adv-x="519" 
d="M136 512l-23 -109.001c52.667 82 120.667 123 204 123c44.667 0 80.667 -12.167 108 -36.5s41 -56.166 41 -95.499c0 -24.667 -4.66699 -58.334 -14 -101.001l-63 -293h-41l64 301c8.66699 46 13 75.333 13 88c0 30.667 -10.667 55.167 -32 73.5s-50.333 27.5 -87 27.5
c-58.667 0 -108.667 -23.333 -150 -70c-32.667 -35.333 -56.667 -89.666 -72 -162.999l-55 -257h-40l109 512h38z" />
    <glyph glyph-name="o" unicode="o" horiz-adv-x="537" 
d="M490 323c0 -40.667 -5.83105 -80.667 -17.498 -120s-28.334 -75.5 -50.001 -108.5s-50.167 -59.5 -85.5 -79.5s-74.666 -30 -117.999 -30c-64.667 0 -114.834 18.667 -150.501 56s-53.5 89.666 -53.5 156.999c0 88 24.667 164.833 74 230.5s116.666 98.5 201.999 98.5
c62.667 0 111.5 -18.167 146.5 -54.5s52.5 -86.166 52.5 -149.499zM288.002 492c-48.667 0 -91.3311 -15.167 -127.998 -45.5s-63.334 -67.333 -80.001 -111s-25 -89.5 -25 -137.5c0 -56.667 14.5 -100.667 43.5 -132s69.5 -47 121.5 -47c38 0 72.167 9.5 102.5 28.5
s54.5 43.667 72.5 74s31.667 63 41 98s14 70.167 14 105.5c0 51.333 -14.333 92 -43 122s-68.334 45 -119.001 45z" />
    <glyph glyph-name="p" unicode="p" 
d="M133 512l-24.999 -119c44.667 89.333 113.334 134 206.001 134c56.667 0 101.5 -18.833 134.5 -56.5s49.5 -88.834 49.5 -153.501c0 -53.333 -9.83301 -104.666 -29.5 -153.999s-50.334 -91.333 -92.001 -126s-89.834 -52 -144.501 -52c-50 0 -90.667 14.167 -122 42.5
s-49.333 66.833 -54 115.5l-68 -328h-40l148 697h37zM303.001 493c-36.667 0 -70.832 -10.334 -102.499 -31.001s-56.834 -47.667 -75.501 -81c-34 -62.667 -51 -127 -51 -193c0 -52 14.167 -93.333 42.5 -124s66.5 -46 114.5 -46c35.333 0 67.833 9.5 97.5 28.5
s53.667 43.5 72 73.5s32.5 62.333 42.5 97s15 68.334 15 101.001c0 52.667 -13 95 -39 127s-64.667 48 -116 48z" />
    <glyph glyph-name="q" unicode="q" 
d="M530 512l-148.002 -697h-40l67 308c-20 -42 -48.167 -75.5 -84.5 -100.5s-77.166 -37.5 -122.499 -37.5c-57.333 0 -102.333 18 -135 54s-49 85.667 -49 149c0 54 10.333 106.333 31 157s52.5 93.667 95.5 129s92.167 53 147.5 53c50 0 90.333 -12.5 121 -37.5
s48.334 -60.5 53.001 -106.5l27 129h37zM294.998 493c-50 0 -93.501 -15.834 -130.501 -47.501s-64 -70 -81 -115s-25.5 -91.833 -25.5 -140.5c0 -54.667 13.333 -97 40 -127s64.334 -45 113.001 -45c49.333 0 92.5 17.833 129.5 53.5s63.833 77.334 80.5 125.001
s25 95.167 25 142.5c0 46.667 -13.667 84 -41 112s-64 42 -110 42z" />
    <glyph glyph-name="r" unicode="r" horiz-adv-x="278" 
d="M332 516l-8.00195 -43c-8.66699 1.33301 -18 2 -28 2c-44.667 0 -83.667 -13.667 -117 -41c-20.667 -16.667 -38.5 -38.667 -53.5 -66s-25.667 -51.833 -32 -73.5s-13.166 -49.5 -20.499 -83.5l-45 -211h-41l109 512h38l-28 -129c48.667 90 113.334 135 194.001 135
c1.33301 0 12 -0.666992 32 -2z" />
    <glyph glyph-name="s" unicode="s" horiz-adv-x="463" 
d="M421 363l-40 0.00390625v15c0 38 -11.333 66 -34 84s-58 27 -106 27c-42.667 0 -76.167 -8.66699 -100.5 -26s-36.5 -41.333 -36.5 -72c0 -10 1.33301 -19.333 4 -28s7.33398 -16.334 14.001 -23.001s12.667 -12.334 18 -17.001s13.5 -9.5 24.5 -14.5l24.5 -11
c5.33301 -2.33301 14.5 -5.66602 27.5 -9.99902s21.167 -7.16602 24.5 -8.49902c22 -8 39.667 -15 53 -21s28.166 -14.667 44.499 -26s28.333 -24.833 36 -40.5s11.5 -33.834 11.5 -54.501c0 -50.667 -20 -88.667 -60 -114s-86.333 -38 -139 -38
c-60.667 0 -107.667 14 -141 42s-50 67.333 -50 118c0 1.33301 0.666992 10 2 26h40c-1.33301 -16 -2 -24.333 -2 -25c0 -40.667 13.333 -72 40 -94s64.667 -33 114 -33c44.667 0 81.5 10.5 110.5 31.5s43.5 48.167 43.5 81.5c0 9.33301 -1.33301 18.166 -4 26.499
s-5.83398 15.5 -9.50098 21.5s-9.16699 12 -16.5 18s-13.5 10.667 -18.5 14s-12.667 7.5 -23 12.5s-17.833 8.33301 -22.5 10l-25 9c-12 4.33301 -19.333 7.16602 -22 8.49902l-41.5 16c-8.33301 3.33301 -20.166 9.16602 -35.499 17.499s-26.5 16.5 -33.5 24.5
s-13.5 18.667 -19.5 32s-9 28.333 -9 45c0 42 16.5 75.667 49.5 101s76.833 38 131.5 38c118 0 177 -48.667 177 -146c0 -6 -0.333008 -11.667 -1 -17z" />
    <glyph glyph-name="t" unicode="t" horiz-adv-x="259" 
d="M270 512l-8 -34.999h-108l-72 -339c-6.66699 -30.667 -10 -51.334 -10 -62.001c0 -28.667 20 -43 60 -43c16.667 0 33.667 1.66699 51 5l-7 -36c-20 -3.33301 -38.667 -5 -56 -5c-60 0 -90 23.333 -90 70c0 14 3.66699 38 11 72l72 338h-95l8 35h94l34 160h41l-33 -160
h108z" />
    <glyph glyph-name="u" unicode="u" horiz-adv-x="519" 
d="M491 512l-109 -512h-39l24 112c-24.667 -44 -52.334 -76.167 -83.001 -96.5s-67 -30.5 -109 -30.5c-46 0 -83.167 12.333 -111.5 37s-42.5 57 -42.5 97c0 23.333 4.33301 55.666 13 96.999l63 296h41l-61 -288c-10 -49.333 -15 -82.333 -15 -99
c0 -31.333 11.333 -56.666 34 -75.999s52.334 -29 89.001 -29c56.667 0 102.5 23 137.5 69s59.167 100.333 72.5 163l55 260h41z" />
    <glyph glyph-name="v" unicode="v" horiz-adv-x="426" 
d="M454 512l-290.999 -512h-46l-90 512h43l62 -369c8.66699 -56 13.667 -90.667 15 -104c5.33301 12 21.666 43 48.999 93l213 380h45z" />
    <glyph glyph-name="w" unicode="w" horiz-adv-x="704" 
d="M738 512l-271.001 -511.998h-46l-39 359c-6 58 -9.33301 94.667 -10 110c-14.667 -33.333 -29.667 -64 -45 -92l-194 -377h-47l-60 512h43l34 -316c6.66699 -58.667 11.334 -110.334 14.001 -155.001c6 15.333 23.333 50.666 52 105.999l185 365h51l37 -338
c6.66699 -58 10.334 -102 11.001 -132c11.333 28 34.666 76 69.999 144l171 326h44z" />
    <glyph glyph-name="x" unicode="x" horiz-adv-x="426" 
d="M451 512l-228 -247l143 -265h-47l-125 239l-219 -239h-50l251 269l-129 243h46l112 -218l197 218h49z" />
    <glyph glyph-name="y" unicode="y" horiz-adv-x="426" 
d="M459 512l-289.002 -506.998c-32.667 -58.667 -59 -101.334 -79 -128.001c-16 -22.667 -33.167 -38.667 -51.5 -48s-41.166 -14 -68.499 -14c-6.66699 0 -19.667 1 -39 3l8 35c12.667 -0.666992 23.667 -1 33 -1c28 0 50 7 66 21s32.667 36 50 66l36 61l-99 512h42
l63 -323c8 -38.667 16 -86.334 24 -143.001c18.667 38.667 42.334 83 71.001 133l188 333h45z" />
    <glyph glyph-name="z" unicode="z" horiz-adv-x="426" 
d="M445 512l-6.99902 -34.999l-373 -382c-28.667 -28.667 -50.334 -49.334 -65.001 -62.001c10.667 0 26 0.333008 46 1s35.333 1 46 1h260l-7 -35h-397l8 37l360 368l40 39.5l34 33.5c-34.667 0 -145.667 -0.333008 -333 -1l8 35h380z" />
    <glyph glyph-name="braceleft" unicode="{" horiz-adv-x="333" 
d="M-6 254l5.99902 25.0029c67.333 5.33301 114 26.666 140 63.999c8 11.333 17.333 39 28 83l28 120c14 60 37.167 103.833 69.5 131.5s78.5 41.5 138.5 41.5l-5 -26c-26 0 -48.833 -4 -68.5 -12s-35.5 -17.667 -47.5 -29s-22.667 -27.5 -32 -48.5
s-16.166 -39.667 -20.499 -56s-9.5 -38.5 -15.5 -66.5l-13 -62c-10.667 -49.333 -27.167 -86.333 -49.5 -111s-56.833 -39 -103.5 -43c30 -8.66699 53.167 -20.667 69.5 -36s24.5 -37.333 24.5 -66c0 -18 -2.66699 -39 -8 -63l-11 -53
c-10.667 -52.667 -16 -90.334 -16 -113.001c0 -58.667 37 -90 111 -94l-6 -25c-42 0 -75.333 10.5 -100 31.5s-37 52.5 -37 94.5c0 23.333 3 49.666 9 78.999l11 55c9.33301 46.667 14 78.334 14 95.001c0 26 -11.833 45.667 -35.5 59s-50.5 21.666 -80.5 24.999z" />
    <glyph glyph-name="bar" unicode="|" horiz-adv-x="222" 
d="M93 -214v1000h36v-1000h-36z" />
    <glyph glyph-name="braceright" unicode="}" horiz-adv-x="333" 
d="M315 280l-5.99902 -25.0029c-67.333 -5.33301 -114 -26.666 -140 -63.999c-8 -11.333 -17.333 -39 -28 -83l-28 -120c-14 -60 -37.167 -103.833 -69.5 -131.5s-78.5 -41.5 -138.5 -41.5l5 26c26 0 48.833 4 68.5 12s35.5 17.667 47.5 29s22.667 27.5 32 48.5
s16.166 39.667 20.499 56s9.5 38.5 15.5 66.5l13 62c10.667 49.333 27.167 86.333 49.5 111s56.833 39 103.5 43c-30 8.66699 -53.167 20.667 -69.5 36s-24.5 37.333 -24.5 66c0 18 2.66699 39 8 63l11 53c10.667 52.667 16 90.334 16 113.001c0 58.667 -37 90 -111 94l6 25
c42 0 75.333 -10.5 100 -31.5s37 -52.5 37 -94.5c0 -23.333 -3 -49.666 -9 -78.999l-11 -55c-9.33301 -46.667 -14 -78.334 -14 -95.001c0 -26 11.833 -45.667 35.5 -59s50.5 -21.666 80.5 -24.999z" />
    <glyph glyph-name="asciitilde" unicode="~" horiz-adv-x="600" 
d="M557 331c-6 -32 -19 -59.166 -39 -81.499s-45.667 -33.5 -77 -33.5c-24.667 0 -72.667 12.333 -144 37l-41.5 14.5c-17.667 6.33301 -30.667 10.833 -39 13.5s-17.833 5.16699 -28.5 7.5s-20.334 3.5 -29.001 3.5c-22 0 -41 -8.16699 -57 -24.5
s-26.667 -35.833 -32 -58.5h-28c6.66699 32.667 19.667 60 39 82s45 33 77 33c10.667 0 22.5 -1.33301 35.5 -4s23.667 -5.16699 32 -7.5s21.833 -6.66602 40.5 -12.999l40 -13.5l36 -12.5c16 -5.66699 28.167 -9.83398 36.5 -12.501s18.333 -5.33398 30 -8.00098
s22.167 -4 31.5 -4c22.667 0 41.834 8 57.501 24s26.5 35.333 32.5 58h27z" />
    <glyph glyph-name="nbspace" unicode="&#xa0;" horiz-adv-x="278" 
 />
    <glyph glyph-name="sterling" unicode="&#xa3;" 
d="M324 350l-6.99707 -26.001h-147c6.66699 -29.333 10 -53.666 10 -72.999c0 -22.667 -3.16699 -43.834 -9.5 -63.501s-16.5 -38.667 -30.5 -57s-26.833 -33.333 -38.5 -45s-27.834 -26.834 -48.501 -45.501c34 13.333 64 20 90 20c20 0 57 -8 111 -24
c31.333 -9.33301 56.666 -14 75.999 -14c25.333 0 48.166 5.33301 68.499 16s41.833 28.334 64.5 53.001l20 -31c-45.333 -51.333 -97 -77 -155 -77c-21.333 0 -44.333 4 -69 12c-62.667 21.333 -107.334 32 -134.001 32c-37.333 0 -76.333 -14 -117 -42l-18 35
c55.333 46 94.333 86.333 117 121s34 71.334 34 110.001c0 21.333 -4 45.666 -12 72.999h-90l5 26h78c-21.333 52.667 -32 101.334 -32 146.001c0 60 21.667 109.333 65 148s99 58 167 58c68.667 0 121.834 -18 159.501 -54s56.5 -86.667 56.5 -152
c0 -6 -0.333008 -11.667 -1 -17h-39v12c0 56.667 -15 100 -45 130s-73.667 45 -131 45c-56.667 0 -102.667 -16 -138 -48s-53 -73.667 -53 -125c0 -41.333 10.667 -89 32 -143h161z" />
    <glyph glyph-name="currency" unicode="&#xa4;" 
d="M58 160l62.999 63.001c-32.667 41.333 -49 86 -49 134s16.333 92.667 49 134l-64 64l24 23l63 -64c40.667 32.667 85.334 49 134.001 49c50.667 0 95.334 -16.333 134.001 -49l64 64l23 -24l-63 -63c32.667 -43.333 49 -88 49 -134
c0 -46.667 -16.667 -91.334 -50 -134.001l64 -64l-23 -23l-64 64c-40.667 -33.333 -85.334 -50 -134.001 -50c-50 0 -94.333 16.667 -133 50l-64 -63zM277.999 528.001c-47.333 0 -87.668 -16.667 -121.001 -50s-50 -73.666 -50 -120.999s16.833 -87.666 50.5 -120.999
s73.834 -50 120.501 -50c48 0 88.667 16.667 122 50s50 73.666 50 120.999s-16.667 87.666 -50 120.999s-74 50 -122 50z" />
    <glyph glyph-name="brokenbar" unicode="&#xa6;" horiz-adv-x="222" 
d="M92 -89v250h38v-250h-38zM92 411v250h38v-250h-38z" />
    <glyph glyph-name="section" unicode="&#xa7;" 
d="M494 533l-40.002 0.0078125c0.666992 6.66699 1 13.334 1 20.001c0 37.333 -11.5 66.666 -34.5 87.999s-54.167 32 -93.5 32c-35.333 0 -64 -9.5 -86 -28.5s-33 -43.5 -33 -73.5c0 -8.66699 0.833008 -17 2.5 -25s4.83398 -16 9.50098 -24s8.83398 -14.667 12.501 -20
s9.5 -12.166 17.5 -20.499l17 -17.5c3.33301 -3.33301 10 -9.33301 20 -18s16 -14 18 -16c4.66699 -4.66699 15.834 -14.667 33.501 -30l39 -34.5c8.33301 -7.66699 19.833 -19.334 34.5 -35.001s25.5 -29.334 32.5 -41.001s13.5 -25.334 19.5 -41.001s9 -31.167 9 -46.5
c0 -38.667 -12.833 -71.334 -38.5 -98.001s-60.167 -43.334 -103.5 -50.001c23.333 -27.333 35 -57.333 35 -90c0 -40.667 -16 -74.334 -48 -101.001s-72 -40 -120 -40c-52.667 0 -95 14.667 -127 44s-48 67.666 -48 114.999c0 1.33301 0.666992 10 2 26h40
c-1.33301 -7.33301 -2 -15.666 -2 -24.999c0 -37.333 12.667 -67.333 38 -90s58.666 -34 99.999 -34c35.333 0 64.5 9.5 87.5 28.5s34.5 43.167 34.5 72.5c0 6.66699 -0.5 13.5 -1.5 20.5s-3.16699 13.833 -6.5 20.5s-6.16602 12.667 -8.49902 18
s-6.33301 11.666 -12 18.999l-12.5 16.5c-2.66699 3.66699 -7.83398 9.16699 -15.501 16.5s-12.5 12.166 -14.5 14.499s-7.16699 7.33301 -15.5 15s-13.166 12.167 -14.499 13.5c-67.333 64 -111.833 110.333 -133.5 139s-32.5 59 -32.5 91c0 38 13 70.833 39 98.5
s58.667 44.167 98 49.5c-18 27.333 -27 53.666 -27 78.999c0 40.667 15 73.667 45 99s68.667 38 116 38c51.333 0 92.166 -13.833 122.499 -41.5s45.5 -64.834 45.5 -111.501c0 -7.33301 -0.333008 -14.666 -1 -21.999zM310.998 80.0078
c40.667 4.66699 70.667 18.668 90 42.001s29 48.333 29 75c0 44 -29 92.667 -87 146l-132 122c-38 -5.33301 -66.667 -19.666 -86 -42.999s-29 -48.333 -29 -75c0 -10.667 2.16699 -21.834 6.5 -33.501s8 -20.834 11 -27.501s10.333 -16.5 22 -29.5s18.5 -20.5 20.5 -22.5
l24 -24z" />
    <glyph glyph-name="copyright" unicode="&#xa9;" horiz-adv-x="800" 
d="M400 729c101.333 0 187.666 -35.832 258.999 -107.499s107 -157.834 107 -258.501c0 -101.333 -35.833 -187.666 -107.5 -258.999s-157.834 -107 -258.501 -107c-101.333 0 -187.666 36 -258.999 108s-107 158 -107 258c0 101.333 35.833 187.666 107.5 258.999
s157.834 107 258.501 107zM400 702.001c-94 0 -174.001 -33.167 -240.001 -99.5s-99 -146.166 -99 -239.499c0 -94 33.333 -174 100 -240s146.334 -99 239.001 -99c94 0 174.167 33.167 240.5 99.5s99.5 146.166 99.5 239.499c0 94 -33.333 174 -100 240
s-146.667 99 -240 99zM574.999 283.001c-6 -38.667 -24.667 -70 -56 -94s-67 -36 -107 -36c-58.667 0 -106.167 21 -142.5 63s-54.5 92.333 -54.5 151c0 58 17.5 107.833 52.5 149.5s80.5 62.5 136.5 62.5c42.667 0 80.334 -13.167 113.001 -39.5s51 -59.833 55 -100.5h-32
c-6 34 -21.333 61 -46 81s-54 30 -88 30c-48 0 -85.833 -18 -113.5 -54s-41.5 -78.333 -41.5 -127c0 -51.333 14.667 -95.333 44 -132s68.333 -55 117 -55c32 0 60.167 9.16699 84.5 27.5s40.166 42.833 47.499 73.5h31z" />
    <glyph glyph-name="guillemotleft" unicode="&#xab;" horiz-adv-x="389" 
d="M201 419l-10 -50l-113 -99l68 -111l-9 -45l-89 142l9 38zM331 419l-11 -51l-113 -98l68 -111l-9 -45l-89 142l9 38z" />
    <glyph glyph-name="logicalnot" unicode="&#xac;" horiz-adv-x="600" 
d="M55 343v33h489v-216h-34v183h-455z" />
    <glyph glyph-name="registered" unicode="&#xae;" horiz-adv-x="400" 
d="M239 729c50.667 0 93.834 -18.001 129.501 -54.001s53.5 -79 53.5 -129c0 -50.667 -18 -94 -54 -130s-79 -54 -129 -54c-50.667 0 -93.834 18.167 -129.501 54.5s-53.5 79.5 -53.5 129.5c0 50.667 18 93.834 54 129.501s79 53.5 129 53.5zM239 707.999
c-44.667 0 -82.834 -16.001 -114.501 -48.001s-47.5 -70 -47.5 -114c0 -44.667 16 -83 48 -115s70 -48 114 -48c44.667 0 82.834 16 114.501 48s47.5 70.333 47.5 115s-16 82.834 -48 114.501s-70 47.5 -114 47.5zM171 643.998l78 0.00195312c20 0 37 -4.83301 51 -14.5
s21 -23.834 21 -42.501c0 -22 -11.667 -37.333 -35 -46c22 -10.667 33 -31.334 33 -62.001c0 -12.667 2 -22.334 6 -29.001h-25c-3.33301 6.66699 -5 14.334 -5 23.001c0 23.333 -4.33301 38.833 -13 46.5s-25.667 11.5 -51 11.5h-37v-81h-23v194zM194 552l45 0.00195312
c39.333 0 59 12.333 59 37c0 11.333 -4 19.666 -12 24.999s-14.833 8.16602 -20.5 8.49902s-15.167 0.5 -28.5 0.5h-43v-71z" />
    <glyph glyph-name="degree" unicode="&#xb0;" horiz-adv-x="400" 
d="M244 700c39.333 0 72.833 -13.833 100.5 -41.5s41.5 -61.167 41.5 -100.5c0 -38.667 -14 -71.834 -42 -99.501s-61.333 -41.5 -100 -41.5s-71.834 13.833 -99.501 41.5s-41.5 60.834 -41.5 99.501c0 39.333 13.833 72.833 41.5 100.5s60.834 41.5 99.501 41.5zM244 667
c-30 0 -55.499 -10.666 -76.499 -31.999s-31.5 -47 -31.5 -77s10.667 -55.5 32 -76.5s46.666 -31.5 75.999 -31.5c30 0 55.667 10.667 77 32s32 46.666 32 75.999c0 30 -10.667 55.667 -32 77s-47 32 -77 32z" />
    <glyph glyph-name="plusminus" unicode="&#xb1;" horiz-adv-x="600" 
d="M258 76v188h-227v33h227v189h35v-189h227v-33h-227v-188h-35zM31 -4v33h489v-33h-489z" />
    <glyph glyph-name="mu" unicode="&#xb5;" horiz-adv-x="519" 
d="M97 512l41 -0.000976562l-61 -288c-10 -49.333 -15 -82.333 -15 -99c0 -31.333 11.333 -56.666 34 -75.999s52.334 -29 89.001 -29c56.667 0 102.5 23 137.5 69s59.167 100.333 72.5 163l55 260h41l-109 -512h-39l24 112c-47.333 -84.667 -112.333 -127 -195 -127
c-31.333 0 -58.333 7.16699 -81 21.5s-38.334 34.833 -47.001 61.5l-54 -253h-41z" />
    <glyph glyph-name="paragraph" unicode="&#xb6;" horiz-adv-x="600" 
d="M606 682h-56l-180 -848h-36l180 848h-136l-180 -848h-36l92 435c-54 3.33301 -95.667 19.833 -125 49.5s-44 70.5 -44 122.5c0 84.667 29 151 87 199s129.333 72 214 72h227z" />
    <glyph glyph-name="periodcentered" unicode="&#xb7;" horiz-adv-x="278" 
d="M156 355l-22 -102h-50l22 102h50z" />
    <glyph glyph-name="guillemotright" unicode="&#xbb;" horiz-adv-x="389" 
d="M91 419l88 -140l-9 -40l-144 -125l11 51l112 99l-68 111zM220 420l89 -142l-10 -38l-144 -125l11 50l112 99l-68 111z" />
    <glyph glyph-name="divide" unicode="&#xf7;" horiz-adv-x="600" 
d="M313 368h-50v100h50v-100zM540 253h-505v33h505v-33zM313 71h-50v100h50v-100z" />
    <glyph glyph-name="florin" unicode="&#x192;" 
d="M420 428l-9 -34.002h-121l-102 -380c-6 -23.333 -10.667 -40.333 -14 -51s-8.5 -25.334 -15.5 -44.001s-14.167 -32.5 -21.5 -41.5s-16.833 -18.667 -28.5 -29s-25.334 -17.666 -41.001 -21.999s-33.5 -6.5 -53.5 -6.5c-15.333 0 -29.666 0.666992 -42.999 2l9 36
c10 -1.33301 20.667 -2 32 -2c17.333 0 33 3.16699 47 9.5s25 13.333 33 21s15.833 19.5 23.5 35.5s13 29 16 39s7.16699 25 12.5 45c1.33301 4.66699 2.33301 8.33398 3 11.001l102 377h-108l9 34h108l30 113c15.333 56.667 34 97.5 56 122.5s59 37.5 111 37.5
c14 0 31.333 -1.33301 52 -4l-9 -36c-20 2 -34 3 -42 3c-37.333 0 -64.5 -8.66699 -81.5 -26s-32.5 -51.666 -46.5 -102.999l-29 -107h121z" />
    <glyph glyph-name="afii10023" unicode="&#x401;" 
d="M614 712l-8 -38h-422l-60 -286h394l-8 -37h-394l-66 -313h435l-8 -38h-479l151 712h465zM342 885l-21 -101h-42l21 101h42zM507 885l-20 -101h-43l22 101h41z" />
    <glyph glyph-name="afii10051" unicode="&#x402;" horiz-adv-x="704" 
d="M228 144l-30 -143.999h-43l143 674h-221l8 38h545l-8 -38h-281l-83 -392c52.667 90.667 126 136 220 136c60 0 104.167 -17.5 132.5 -52.5s42.5 -77.833 42.5 -128.5c0 -84 -32 -161.833 -96 -233.5s-137.667 -113.834 -221 -126.501l8 38
c70.667 14 133.167 52.833 187.5 116.5s81.5 131.5 81.5 203.5c0 42.667 -12.333 78 -37 106s-63 42 -115 42c-56 0 -105 -21.167 -147 -63.5s-70.667 -100.833 -86 -175.5z" />
    <glyph glyph-name="afii10052" unicode="&#x403;" horiz-adv-x="500" 
d="M461 909l-132 -140h-36l117 140h51zM574 674h-392l-143 -674h-43l151 712h435z" />
    <glyph glyph-name="afii10053" unicode="&#x404;" horiz-adv-x="704" 
d="M480 388l-8.00098 -36.999h-380c-3.33301 -25.333 -5 -48.333 -5 -69c0 -79.333 21.167 -142.666 63.5 -189.999s99.5 -71 171.5 -71c69.333 0 129.833 20.333 181.5 61s87.5 96 107.5 166h44c-20 -80 -60.167 -144.167 -120.5 -192.5s-131.5 -72.5 -213.5 -72.5
c-85.333 0 -153.166 26.667 -203.499 80s-75.5 125.666 -75.5 216.999c0 77.333 14.667 149.333 44 216s73.833 121.667 133.5 165s128.834 65 207.501 65s142.334 -21.333 191.001 -64s73.334 -99 74.001 -169h-43c-4 61.333 -25.333 109.166 -64 143.499
s-91.334 51.5 -158.001 51.5c-84.667 0 -155.834 -28.5 -213.501 -85.5s-95.834 -128.5 -114.501 -214.5h381z" />
    <glyph glyph-name="afii10054" unicode="&#x405;" horiz-adv-x="630" 
d="M605 507l-41.0039 0.00195312v10c0 112.667 -68 169 -204 169c-63.333 0 -113.5 -13.833 -150.5 -41.5s-55.5 -64.834 -55.5 -111.501c0 -14 2.16699 -27 6.5 -39s9.33301 -22.333 15 -31s14.334 -17.167 26.001 -25.5s21.5 -14.833 29.5 -19.5s20 -9.83398 36 -15.501
s27.667 -9.66699 35 -12s19.833 -6 37.5 -11l33.5 -9.5c57.333 -16 100.833 -36.5 130.5 -61.5s44.5 -63.5 44.5 -115.5c0 -62.667 -24.5 -112.834 -73.5 -150.501s-113.833 -56.5 -194.5 -56.5c-83.333 0 -148 19.667 -194 59s-69 95 -69 167
c0 2.66699 0.166992 6.33398 0.5 11.001s0.5 9 0.5 13h42v-19c0 -66.667 19.667 -115.834 59 -147.501s93.666 -47.5 162.999 -47.5c67.333 0 121.5 15.5 162.5 46.5s61.5 72.167 61.5 123.5c0 39.333 -12.667 68.833 -38 88.5s-60.666 36.167 -105.999 49.5l-36 10.5
c-19.333 5.66699 -32.333 9.66699 -39 12l-36.5 12.5c-17.667 6 -30.167 11.333 -37.5 16s-17.666 10.834 -30.999 18.501s-23.166 15.667 -29.499 24s-13.166 17.833 -20.499 28.5s-12.5 22.667 -15.5 36s-4.5 27.666 -4.5 42.999c0 58.667 22.333 105.334 67 140.001
s105 52 181 52c80 0 141 -16.833 183 -50.5s63 -82.5 63 -146.5c0 -6 -0.333008 -12.333 -1 -19z" />
    <glyph glyph-name="afii10055" unicode="&#x406;" horiz-adv-x="185" 
d="M193 712l-151 -712h-44l151 712h44z" />
    <glyph glyph-name="afii10056" unicode="&#x407;" horiz-adv-x="185" 
d="M192 712l-151 -712h-43l151 712h43zM318 885l-22 -101h-43l22 101h43zM143 885l-22 -101h-42l22 101h42z" />
    <glyph glyph-name="afii10057" unicode="&#x408;" horiz-adv-x="481" 
d="M497 712l-105.996 -500.999c-7.33301 -36 -15.833 -66.333 -25.5 -91s-22.834 -47.834 -39.501 -69.501s-38.334 -38 -65.001 -49s-58.334 -16.5 -95.001 -16.5c-56.667 0 -100.667 13.833 -132 41.5s-47 66.5 -47 116.5c0 23.333 3.33301 50.333 10 81h42
c-6.66699 -39.333 -10 -66 -10 -80c0 -39.333 11.833 -69.666 35.5 -90.999s57.5 -32 101.5 -32c30 0 55.833 4.66699 77.5 14s39.167 23.666 52.5 42.999s23.666 39 30.999 59s14 44.667 20 74l107 501h43z" />
    <glyph glyph-name="afii10058" unicode="&#x409;" horiz-adv-x="1000" 
d="M954 220c0 -42.667 -10.665 -81.5 -31.998 -116.5s-49.666 -61.167 -84.999 -78.5c-35.333 -16.667 -93.666 -25 -174.999 -25h-226l143 674h-262l-110 -448c-38.667 -156.667 -101.334 -235 -188.001 -235c-32 0 -55.333 3 -70 9l8 40c13.333 -8 36.666 -12 69.999 -12
c22.667 0 44.167 11.833 64.5 35.5s35.833 49.167 46.5 76.5s19.667 56 27 86l118 486h347l-67 -317h166c33.333 0 62.166 -2.33301 86.499 -7s47.666 -13 69.999 -25s39.333 -30 51 -54s17.5 -53.667 17.5 -89zM911.002 218c0 54.667 -16.834 91.499 -50.501 110.499
s-81.167 28.5 -142.5 28.5h-163l-68 -319h173c28 0 49 0.333008 63 1s32.5 3.33398 55.5 8.00098s42.167 12 57.5 22c22.667 14.667 40.834 35.5 54.501 62.5s20.5 55.833 20.5 86.5z" />
    <glyph glyph-name="afii10059" unicode="&#x40a;" horiz-adv-x="1000" 
d="M507 357h-391l-77 -357h-43l151 712h44l-67 -317h391l67 317h43l-67 -317h176c33.333 0 62.166 -2.33301 86.499 -7s47.666 -13 69.999 -25s39.333 -30 51 -54s17.5 -53.667 17.5 -89c0 -42.667 -10.667 -81.5 -32 -116.5s-49.666 -61.167 -84.999 -78.5
c-35.333 -16.667 -93.666 -25 -174.999 -25h-236zM916 218c0 54.667 -16.834 91.499 -50.501 110.499s-81.167 28.5 -142.5 28.5h-173l-68 -319h183c28 0 49 0.333008 63 1s32.5 3.33398 55.5 8.00098s42.167 12 57.5 22c22.667 14.667 40.834 35.5 54.501 62.5
s20.5 55.833 20.5 86.5z" />
    <glyph glyph-name="afii10060" unicode="&#x40b;" horiz-adv-x="704" 
d="M607 148l-32.001 -148.003h-43l32 148c10.667 49.333 16 89.333 16 120c0 40.667 -10.5 71 -31.5 91s-56.833 30 -107.5 30c-12.667 0 -26.167 -1.16699 -40.5 -3.5s-27.166 -5.16602 -38.499 -8.49902s-24 -7.66602 -38 -12.999s-24.667 -9.66602 -32 -12.999
l-27.5 -12.5c-11 -5 -17.167 -7.83301 -18.5 -8.5l-70 -330h-43l144 674h-221l8 38h545l-8 -38h-281l-65 -303c78 36.667 140.333 55 187 55c66.667 0 113.667 -12.167 141 -36.5s41 -61.5 41 -111.5c0 -36 -5.66699 -79.333 -17 -130z" />
    <glyph glyph-name="afii10061" unicode="&#x40c;" horiz-adv-x="611" 
d="M678 712l-381 -301l273 -411h-49l-257 385l-171 -133l-52 -252h-43l149 712h43l-85 -405l511 405h62zM491 909l-132 -140h-36l117 140h51z" />
    <glyph glyph-name="afii10062" unicode="&#x40e;" 
d="M231 153l-158.001 559h46l141 -516l347 516h50l-425 -628c-43.333 -64 -89.666 -96 -138.999 -96c-12 0 -26.5 2.16699 -43.5 6.5s-28.167 9.5 -33.5 15.5l9 41c16.667 -16.667 39.667 -25 69 -25c34 0 67.667 24.667 101 74zM519.999 881
c-8 -34 -25.668 -62.499 -53.001 -85.499s-59.666 -34.5 -96.999 -34.5c-36 0 -65.167 9.66699 -87.5 29s-33.5 45.333 -33.5 78c0 6 0.333008 10.333 1 13h33c0.666992 -58 29.334 -87 86.001 -87c24.667 0 48.167 8.16699 70.5 24.5s38.166 37.166 47.499 62.499h33z" />
    <glyph glyph-name="afii10145" unicode="&#x40f;" horiz-adv-x="667" 
d="M284 0l-39 -185h-43l39 185h-245l151 712h43l-143 -674h446l143 674h43l-151 -712h-244z" />
    <glyph glyph-name="afii10017" unicode="&#x410;" horiz-adv-x="611" 
d="M411 712l132 -712h-45l-41 230h-342l-140 -230h-50l440 712h46zM381 672c-7.33301 -12 -18.167 -31 -32.5 -57s-25.5 -45 -33.5 -57l-179 -292h315l-53 295c-9.33301 49.333 -15 86.333 -17 111z" />
    <glyph glyph-name="afii10018" unicode="&#x411;" horiz-adv-x="630" 
d="M526 222c0 38 -12.499 70.167 -37.499 96.5s-64.5 39.5 -118.5 39.5h-264l-68 -320h263c63.333 0 116.666 15.667 159.999 47s65 77 65 137zM620.001 712l-7.99902 -38h-438l-59 -278h254c63.333 0 112.666 -15.667 147.999 -47s53 -73 53 -125
c0 -71.333 -25 -126.5 -75 -165.5s-112 -58.5 -186 -58.5h-322l152 712h481z" />
    <glyph glyph-name="afii10019" unicode="&#x412;" horiz-adv-x="630" 
d="M148 712h226c26.667 0 49.5 -0.666992 68.5 -2s40 -5.16602 63 -11.499s41.667 -15 56 -26s26.5 -26.667 36.5 -47s15 -44.833 15 -73.5c0 -48.667 -15.167 -89.334 -45.5 -122.001s-71.833 -52.667 -124.5 -60c41.333 -7.33301 73.833 -23.5 97.5 -48.5
s35.5 -58.833 35.5 -101.5c0 -62.667 -22 -115 -66 -157c-20.667 -19.333 -45.167 -34 -73.5 -44s-52.333 -15.667 -72 -17s-48.5 -2 -86.5 -2h-280zM183 674l-61 -288h219c152.667 0 229 54.667 229 164c0 22.667 -4 42 -12 58s-17.5 28.167 -28.5 36.5
s-26 14.833 -45 19.5s-36 7.5 -51 8.5s-33.833 1.5 -56.5 1.5h-194zM114 351l-66.002 -315h215c64.667 0 113.334 4.33301 146.001 13c36.667 9.33301 66.5 29.833 89.5 61.5s34.5 67.834 34.5 108.501c0 23.333 -4 43.333 -12 60s-18 29.5 -30 38.5
s-27.667 16.167 -47 21.5s-37.166 8.66602 -53.499 9.99902s-35.5 2 -57.5 2h-219z" />
    <glyph glyph-name="afii10020" unicode="&#x413;" horiz-adv-x="500" 
d="M574 674h-392l-143 -674h-43l151 712h435z" />
    <glyph glyph-name="afii10021" unicode="&#x414;" horiz-adv-x="670" 
d="M504 -185l39 184.999h-558l-39 -185h-43l47 223h65c98.667 130.667 182.667 355.334 252 674.001h387l-144 -674h84l-47 -223h-43zM603 674.999h-301c-72 -306.667 -151.667 -519 -239 -637h404z" />
    <glyph glyph-name="afii10022" unicode="&#x415;" 
d="M614 712l-8 -38h-422l-60 -286h394l-8 -37h-394l-66 -313h435l-8 -38h-479l151 712h465z" />
    <glyph glyph-name="afii10024" unicode="&#x416;" horiz-adv-x="980" 
d="M355 405l-385 -405h-57l416 436l-242 276h53l329 -377l79 377h43l-79 -374l470 374h64l-358 -282l240 -430h-50l-224 403l-153 -120l-61 -283h-43l61 288z" />
    <glyph glyph-name="afii10025" unicode="&#x417;" horiz-adv-x="630" 
d="M608 563c0 -48.667 -15.999 -90.499 -47.999 -125.499s-73.333 -56.5 -124 -64.5v-2c44 -5.33301 78.167 -20.333 102.5 -45s36.5 -58.334 36.5 -101.001c0 -50 -14.5 -93.667 -43.5 -131s-65.5 -64.833 -109.5 -82.5s-91.333 -26.5 -142 -26.5
c-83.333 0 -148 19.833 -194 59.5s-69 95.5 -69 167.5c0 2.66699 0.166992 6.33398 0.5 11.001s0.5 9 0.5 13h42v-19c0 -66.667 19.667 -116 59 -148s93.666 -48 162.999 -48c67.333 0 126 18.667 176 56s75 87 75 149c0 84 -62.333 126 -187 126
c-46 0 -73.667 -0.333008 -83 -1l10 38h74c58.667 0 109.5 15.167 152.5 45.5s64.5 73.833 64.5 130.5c0 41.333 -16.833 72.666 -50.5 93.999s-77.5 32 -131.5 32c-144.667 0 -228 -60 -250 -180h-43c28.667 145.333 126.667 218 294 218c70 0 125 -14.833 165 -44.5
s60 -70.167 60 -121.5z" />
    <glyph glyph-name="afii10026" unicode="&#x418;" horiz-adv-x="667" 
d="M485 0l140 657h-3l-568 -657h-58l151 712h43l-139 -657h3l565 657h60l-151 -712h-43z" />
    <glyph glyph-name="afii10027" unicode="&#x419;" horiz-adv-x="667" 
d="M485 0l140 657h-3l-568 -657h-58l151 712h43l-139 -657h3l565 657h60l-151 -712h-43zM567 881c-8 -34 -25.668 -62.499 -53.001 -85.499s-59.666 -34.5 -96.999 -34.5c-36 0 -65.167 9.66699 -87.5 29s-33.5 45.333 -33.5 78c0 6 0.333008 10.333 1 13h33
c0.666992 -58 29.334 -87 86.001 -87c24.667 0 48.167 8.16699 70.5 24.5s38.166 37.166 47.499 62.499h33z" />
    <glyph glyph-name="afii10028" unicode="&#x41a;" horiz-adv-x="611" 
d="M678 712l-381 -301l273 -411h-49l-257 385l-171 -133l-52 -252h-43l149 712h43l-85 -405l511 405h62z" />
    <glyph glyph-name="afii10029" unicode="&#x41b;" horiz-adv-x="667" 
d="M683 712l-150.998 -712h-43l143 674h-310l-110 -448c-38.667 -156.667 -101.334 -235 -188.001 -235c-32 0 -55.333 3 -70 9l8 40c13.333 -8 36.666 -12 69.999 -12c22.667 0 44.167 11.833 64.5 35.5s35.833 49.167 46.5 76.5s19.667 56 27 86l118 486h395z" />
    <glyph glyph-name="afii10030" unicode="&#x41c;" horiz-adv-x="815" 
d="M830 712l-152.001 -712h-42l105 488c17.333 81.333 32 142 44 182l-40 -65.5l-39 -64.5l-346 -540h-43l-115 534c-7.33301 32.667 -16 78 -26 136c-4.66699 -22 -11.167 -55.667 -19.5 -101s-14.833 -79.333 -19.5 -102l-99 -467h-43l152 712h59l113 -529
c2.66699 -13.333 6.83398 -36 12.501 -68s10.5 -56.333 14.5 -73c7.33301 14.667 33 56.667 77 126l346 544h61z" />
    <glyph glyph-name="afii10031" unicode="&#x41d;" horiz-adv-x="667" 
d="M679 712l-150 -712h-44l75 353h-445l-76 -353h-43l151 712h44l-68 -322h445l68 322h43z" />
    <glyph glyph-name="afii10032" unicode="&#x41e;" horiz-adv-x="741" 
d="M711 437c0 -58 -8.33301 -113.832 -25 -167.499s-40.667 -102 -72 -145s-71.666 -77.333 -120.999 -103s-104 -38.5 -164 -38.5c-88.667 0 -159 27.167 -211 81.5s-78 127.833 -78 220.5c0 78.667 14.5 151.167 43.5 217.5s73.167 120.666 132.5 162.999
s128.666 63.5 207.999 63.5c87.333 0 157 -26.5 209 -79.5s78 -123.833 78 -212.5zM419 691.001c-53.333 0 -101.833 -11.666 -145.5 -34.999s-79 -54.333 -106 -93s-47.833 -82 -62.5 -130s-22 -97.333 -22 -148c0 -80.667 22.5 -145 67.5 -193s105.167 -72 180.5 -72
c42 0 81.333 8 118 24s68.167 37.5 94.5 64.5s49 58.167 68 93.5s33.167 72.5 42.5 111.5s14 77.833 14 116.5c0 79.333 -22 142.666 -66 189.999s-105 71 -183 71z" />
    <glyph glyph-name="afii10033" unicode="&#x41f;" horiz-adv-x="667" 
d="M679 712l-150 -712h-44l143 674h-445l-144 -674h-43l151 712h532z" />
    <glyph glyph-name="afii10034" unicode="&#x420;" horiz-adv-x="593" 
d="M147 712h240c33.333 0 62.166 -2.33301 86.499 -7s47.666 -13 69.999 -25s39.333 -30 51 -54s17.5 -53.667 17.5 -89c0 -42.667 -10.667 -81.5 -32 -116.5s-49.666 -61.167 -84.999 -78.5c-35.333 -16.667 -93.666 -25 -174.999 -25h-213l-67 -317h-44zM183 674
l-68.001 -320h203c84 0 142.667 10.667 176 32c22.667 14.667 40.834 35.5 54.501 62.5s20.5 55.833 20.5 86.5c0 54.667 -16.833 91.5 -50.5 110.5s-81.167 28.5 -142.5 28.5h-193z" />
    <glyph glyph-name="afii10035" unicode="&#x421;" horiz-adv-x="704" 
d="M655 248c-20 -80 -60.1699 -144.165 -120.503 -192.498s-131.5 -72.5 -213.5 -72.5c-85.333 0 -153.166 26.667 -203.499 80s-75.5 125.666 -75.5 216.999c0 77.333 14.667 149.333 44 216s73.833 121.667 133.5 165s128.834 65 207.501 65s142.334 -21.333 191.001 -64
s73.334 -99 74.001 -169h-43c-4 61.333 -25.333 109.166 -64 143.499s-91.334 51.5 -158.001 51.5c-68.667 0 -129.5 -20.167 -182.5 -60.5s-92.5 -90.833 -118.5 -151.5s-39 -125.334 -39 -194.001c0 -79.333 21.167 -142.666 63.5 -189.999s99.5 -71 171.5 -71
c69.333 0 129.833 20.333 181.5 61s87.5 96 107.5 166h44z" />
    <glyph glyph-name="afii10036" unicode="&#x422;" horiz-adv-x="519" 
d="M611 712l-8 -37h-248l-142 -675h-44l143 675h-257l8 37h548z" />
    <glyph glyph-name="afii10037" unicode="&#x423;" 
d="M231 153l-158.001 559h46l141 -516l347 516h50l-425 -628c-43.333 -64 -89.666 -96 -138.999 -96c-12 0 -26.5 2.16699 -43.5 6.5s-28.167 9.5 -33.5 15.5l9 41c16.667 -16.667 39.667 -25 69 -25c34 0 67.667 24.667 101 74z" />
    <glyph glyph-name="afii10038" unicode="&#x424;" horiz-adv-x="722" 
d="M294 119l102 480.001h-27c-82 0 -151.667 -26.833 -209 -80.5s-86 -121.167 -86 -202.5c0 -60.667 19.833 -106.834 59.5 -138.501s93.167 -51.167 160.5 -58.5zM438 599.001l-103 -481.998h-1h1c2 0 5 0.166992 9 0.5s6.66699 0.5 8 0.5c89.333 6 162.333 32.333 219 79
s85 113 85 199c0 61.333 -20.833 110.166 -62.5 146.499s-93.5 55.166 -155.5 56.499zM462 712.003l-16 -76.001c73.333 -3.33301 134 -26.666 182 -69.999s72 -100.333 72 -171c0 -95.333 -34.167 -171.333 -102.5 -228s-151.833 -85 -250.5 -85h-19l-18 -82h-42l18 82
c-74 4 -135.167 26.667 -183.5 68s-72.5 97.666 -72.5 168.999c0 94.667 34.5 171.334 103.5 230.001s152.167 88 249.5 88h21l16 75h42z" />
    <glyph glyph-name="afii10039" unicode="&#x425;" 
d="M630 712l-319.999 -348.999l189 -363h-47l-118 226c-24.667 48 -42.334 84 -53.001 108c-6.66699 -6.66699 -25 -26.667 -55 -60l-252 -274h-54l340 369l-177 343h47l114 -222l46 -93c6.66699 7.33301 20.167 23.166 40.5 47.499s36.5 42.833 48.5 55.5l198 212h53z" />
    <glyph glyph-name="afii10040" unicode="&#x426;" horiz-adv-x="685" 
d="M519 -185l39 185h-561l151 712h43l-143 -674h444l143 674h43l-143 -674h74l-47 -223h-43z" />
    <glyph glyph-name="afii10041" unicode="&#x427;" horiz-adv-x="630" 
d="M447 0l75.001 352c-22 -8.66699 -58.333 -19 -109 -31s-93.334 -18 -128.001 -18c-66 0 -114.667 11.167 -146 33.5s-47 60.5 -47 114.5c0 24 3.66699 54.333 11 91l36 170h43l-35 -162c-8.66699 -41.333 -13 -74 -13 -98c0 -39.333 11.333 -67.833 34 -85.5
s61 -26.5 115 -26.5c38.667 0 83.5 6.16699 134.5 18.5s88.833 23.5 113.5 33.5l68 320h42l-152 -712h-42z" />
    <glyph glyph-name="afii10042" unicode="&#x428;" horiz-adv-x="1000" 
d="M-3 0l151 712h43l-143 -674h366l143 674h43l-143 -674h367l143 674h42l-151 -712h-861z" />
    <glyph glyph-name="afii10043" unicode="&#x429;" horiz-adv-x="1024" 
d="M850 -185l39 185h-892l151 712h43l-143 -674h366l143 674h43l-143 -674h366l143 674h43l-143 -674h74l-47 -223h-43z" />
    <glyph glyph-name="afii10044" unicode="&#x42a;" horiz-adv-x="778" 
d="M312 674h-259.002l8 38h302l-67 -317h196c33.333 0 62.333 -2.33301 87 -7s48 -13 70 -25s38.833 -30 50.5 -54s17.5 -53.667 17.5 -89c0 -42.667 -10.667 -81.5 -32 -116.5s-49.666 -61.167 -84.999 -78.5c-35.333 -16.667 -93.666 -25 -174.999 -25h-256zM673.998 218
c0 54.667 -16.834 91.499 -50.501 110.499s-81.167 28.5 -142.5 28.5h-193l-68 -319h203c28 0 49 0.333008 63 1s32.5 3.33398 55.5 8.00098s42.167 12 57.5 22c22.667 14.667 40.834 35.5 54.501 62.5s20.5 55.833 20.5 86.5z" />
    <glyph glyph-name="afii10045" unicode="&#x42b;" horiz-adv-x="809" 
d="M626 0l152 712h43l-152 -712h-43zM546 220c0 -42.667 -10.667 -81.5 -32 -116.5s-49.666 -61.167 -84.999 -78.5c-35.333 -16.667 -93.666 -25 -174.999 -25h-257l152 712h43l-67 -317h196c33.333 0 62.166 -2.33301 86.499 -7s47.666 -13 69.999 -25s39.333 -30 51 -54
s17.5 -53.667 17.5 -89zM503 218c0 54.667 -16.834 91.499 -50.501 110.499s-81.167 28.5 -142.5 28.5h-193l-68 -319h203c28 0 49 0.333008 63 1s32.5 3.33398 55.5 8.00098s42.167 12 57.5 22c22.667 14.667 40.834 35.5 54.501 62.5s20.5 55.833 20.5 86.5z" />
    <glyph glyph-name="afii10046" unicode="&#x42c;" horiz-adv-x="593" 
d="M546 220c0 -42.667 -10.667 -81.5 -32 -116.5s-49.666 -61.167 -84.999 -78.5c-35.333 -16.667 -93.666 -25 -174.999 -25h-257l151 712h43l-67 -317h197c33.333 0 62.166 -2.33301 86.499 -7s47.666 -13 69.999 -25s39.333 -30 51 -54s17.5 -53.667 17.5 -89zM503 218
c0 54.667 -16.834 91.499 -50.501 110.499s-81.167 28.5 -142.5 28.5h-193l-68 -319h203c28 0 49 0.333008 63 1s32.5 3.33398 55.5 8.00098s42.167 12 57.5 22c22.667 14.667 40.834 35.5 54.501 62.5s20.5 55.833 20.5 86.5z" />
    <glyph glyph-name="afii10047" unicode="&#x42d;" horiz-adv-x="704" 
d="M292 22c85.333 0 158.166 30.334 218.499 91.001s97.833 140.667 112.5 240h-379l8 38h375c0.666992 6.66699 1 17 1 31c0 81.333 -21.833 146.333 -65.5 195s-103.167 73 -178.5 73c-64.667 0 -122 -17.167 -172 -51.5s-85.667 -81.166 -107 -140.499h-42
c17.333 69.333 57.666 125.166 120.999 167.499s131 63.5 203 63.5c87.333 0 156.5 -27.333 207.5 -82s76.5 -128 76.5 -220c0 -20.667 -1.66699 -45 -5 -73c-15.333 -111.333 -57.666 -200.833 -126.999 -268.5s-153 -101.5 -251 -101.5
c-80.667 0 -145.5 24.167 -194.5 72.5s-73.5 112.166 -73.5 191.499h42c3.33301 -68 24.833 -122.667 64.5 -164s94.834 -62 165.501 -62z" />
    <glyph glyph-name="afii10048" unicode="&#x42e;" horiz-adv-x="980" 
d="M950 437c0 -58 -8.33398 -113.833 -25.001 -167.5s-40.667 -102 -72 -145s-71.666 -77.333 -120.999 -103s-104 -38.5 -164 -38.5c-88.667 0 -159 27.167 -211 81.5s-78 127.833 -78 220.5c0 26 1.33301 48.667 4 68h-168l-76 -353h-43l151 712h44l-68 -322h166
c18.667 98 60.667 179 126 243s148 96 248 96c87.333 0 157 -26.5 209 -79.5s78 -123.833 78 -212.5zM657.999 691c-53.333 0 -101.833 -11.666 -145.5 -34.999s-79 -54.333 -106 -93s-47.833 -82 -62.5 -130s-22 -97.333 -22 -148c0 -80.667 22.5 -145 67.5 -193
s105.167 -72 180.5 -72c42 0 81.333 8 118 24s68.167 37.5 94.5 64.5s49 58.167 68 93.5s33.167 72.5 42.5 111.5s14 77.833 14 116.5c0 79.333 -22 142.666 -66 189.999s-105 71 -183 71z" />
    <glyph glyph-name="afii10049" unicode="&#x42f;" horiz-adv-x="630" 
d="M591 675h-258c-60.667 0 -110.5 -15.167 -149.5 -45.5s-58.5 -74.833 -58.5 -133.5c0 -42 16 -74.5 48 -97.5s74.333 -34.5 127 -34.5h225zM448 0l70 327.001h-250l-306 -327h-54l313 333c-38 6 -70.833 24.333 -98.5 55s-41.5 66.667 -41.5 108
c0 71.333 24.667 125.166 74 161.499s111.333 54.5 186 54.5h301l-151 -712h-43z" />
    <glyph glyph-name="afii10065" unicode="&#x430;" horiz-adv-x="500" 
d="M58 365c15.333 56 39.5029 96.832 72.5029 122.499s79.167 38.5 138.5 38.5c53.333 0 94.666 -10.667 123.999 -32s44 -51.333 44 -90c0 -18.667 -4.66699 -48 -14 -88l-36 -157c-11.333 -46.667 -17 -79 -17 -97c0 -21.333 9.33301 -32 28 -32
c6.66699 0 17.667 1.66699 33 5l-6 -33c-17.333 -4 -30.333 -6 -39 -6c-34.667 0 -52 18.333 -52 55c0 12 2.33301 27.333 7 46c-45.333 -74.667 -112 -112 -200 -112c-48.667 0 -86.834 12.333 -114.501 37s-41.5 58.334 -41.5 101.001c0 27.333 6.66699 52.333 20 75
s31.666 40.667 54.999 54c20 11.333 43 19.5 69 24.5s67.333 9.16699 124 12.5c69.333 4.66699 111 15 125 31c12.667 14.667 19 39.667 19 75c0 63.333 -42.667 95 -128 95c-48 0 -85.5 -10 -112.5 -30s-46.5 -51.667 -58.5 -95h-40zM379.003 287.999
c-11.333 -10.667 -27 -17.999 -47 -21.999c-13.333 -2.66699 -49.666 -5.83398 -108.999 -9.50098s-103.333 -12.167 -132 -25.5c-20 -8.66699 -36 -22.667 -48 -42s-18 -40.666 -18 -63.999c0 -33.333 11 -59.5 33 -78.5s52.333 -28.5 91 -28.5
c39.333 0 75.333 10.167 108 30.5s58 48.166 76 83.499c11.333 23.333 22.666 58.333 33.999 105z" />
    <glyph glyph-name="afii10066" unicode="&#x431;" horiz-adv-x="537" 
d="M517 729c-4.66699 -21.333 -17.001 -36.998 -37.001 -46.998s-50.667 -17.667 -92 -23l-90 -11c-32.667 -4 -62.5 -16 -89.5 -36s-49.333 -45.333 -67 -76s-32 -61.167 -43 -91.5s-20.167 -62.833 -27.5 -97.5h3c24 49.333 55.5 88.666 94.5 117.999s81.833 44 128.5 44
c60 0 106.667 -17.333 140 -52s50 -82.334 50 -143.001c0 -54.667 -9.5 -106.334 -28.5 -155.001s-49 -89.834 -90 -123.501s-88.833 -50.5 -143.5 -50.5c-64.667 0 -113.334 19.667 -146.001 59s-49 94.333 -49 165c0 36.667 2.66699 74.167 8 112.5s14.5 78.5 27.5 120.5
s29.333 79.667 49 113s45.334 61.833 77.001 85.5s66.834 37.834 105.501 42.501l99 12c2 0 5.66699 0.333008 11 1s9.16602 1.16699 11.499 1.5s5.83301 1 10.5 2s8.16699 1.66699 10.5 2s5.33301 1 9 2s6.5 2 8.5 3s4.5 2.33301 7.5 4s5.16699 3.33398 6.5 5.00098
s2.83301 3.66699 4.5 6s2.83398 4.83301 3.50098 7.5h38zM446.999 316.002c0 48.667 -13.499 87.167 -40.499 115.5s-64.5 42.5 -112.5 42.5c-68.667 0 -123.167 -28.833 -163.5 -86.5s-60.5 -123.834 -60.5 -198.501c0 -54 13.667 -95.833 41 -125.5
s65.666 -44.5 114.999 -44.5c47.333 0 88.333 15.833 123 47.5s59.667 69.334 75 113.001s23 89.167 23 136.5z" />
    <glyph glyph-name="afii10067" unicode="&#x432;" horiz-adv-x="500" 
d="M98 512l190.995 -0.000976562c24.667 0 45.334 -1.16699 62.001 -3.5s34.334 -7 53.001 -14s32.834 -18.667 42.501 -35s14.5 -37.166 14.5 -62.499c0 -35.333 -10.667 -64 -32 -86s-51 -35.667 -89 -41c29.333 -5.33301 52.5 -17.666 69.5 -36.999
s25.5 -44.333 25.5 -75c0 -44.667 -16 -82.334 -48 -113.001c-14.667 -14 -32.167 -24.5 -52.5 -31.5s-37.666 -11 -51.999 -12s-35.166 -1.5 -62.499 -1.5h-230zM131.995 477.999l-40 -191h177c101.333 0 152 36 152 108c0 18.667 -3.5 33.834 -10.5 45.501
s-17.5 20.167 -31.5 25.5s-27.167 8.66602 -39.5 9.99902s-27.833 2 -46.5 2h-161zM82.9951 252.999l-45 -218.001h170c45.333 0 79 3 101 9c25.333 6.66699 46 21 62 43s24 47 24 75c0 20 -3.83301 36.333 -11.5 49s-19 21.834 -34 27.501s-29.333 9.5 -43 11.5
s-30.167 3 -49.5 3h-174z" />
    <glyph glyph-name="afii10068" unicode="&#x433;" horiz-adv-x="400" 
d="M135 477l-101 -477h-40l109 512h340l-8 -35h-300z" />
    <glyph glyph-name="afii10069" unicode="&#x434;" horiz-adv-x="537" 
d="M383 -161l34 161h-438l-34 -161h-40l42 196h60c34.667 50 66.667 115.333 96 196s52 159.667 68 237l9 44h316l-101 -477h70l-42 -196h-40zM449 477l-236 -0.000976562l-9 -39c-17.333 -72.667 -40 -147.167 -68 -223.5s-57 -136.166 -87 -179.499h306z" />
    <glyph glyph-name="afii10070" unicode="&#x435;" horiz-adv-x="519" 
d="M445 168c-16.667 -58.667 -44.834 -103.83 -84.501 -135.497s-88.167 -47.5 -145.5 -47.5c-63.333 0 -112.666 19.167 -147.999 57.5s-53 92.166 -53 161.499c0 92 25.5 168.833 76.5 230.5s114.5 92.5 190.5 92.5c60 0 107 -18.167 141 -54.5s51 -86.833 51 -151.5
c0 -18.667 -2 -41.334 -6 -68.001h-409c-2.66699 -14 -4 -30.333 -4 -49c0 -58 14.5 -103.5 43.5 -136.5s69.167 -49.5 120.5 -49.5c43.333 0 81.333 13.167 114 39.5s56.667 63.166 72 110.499h41zM63 287.004h368c2 16 3 27.667 3 35c0 54 -13.667 96 -41 126
s-65.666 45 -114.999 45c-52.667 0 -98.334 -18.5 -137.001 -55.5s-64.667 -87.167 -78 -150.5z" />
    <glyph glyph-name="afii10072" unicode="&#x436;" horiz-adv-x="722" 
d="M663 0h-46l-169 270l29 29zM748 512l-394 -334l-38 -178h-40l38 178l-247 334h50l208 -282l60 282h40l-60 -282l325 282h58zM248 270l-261 -270h-55l295 302z" />
    <glyph glyph-name="afii10073" unicode="&#x437;" horiz-adv-x="473" 
d="M297 273c32.667 -3.33301 58.999 -15.665 78.999 -36.998s30 -47 30 -77c0 -52.667 -22.333 -94.834 -67 -126.501s-95 -47.5 -151 -47.5c-58.667 0 -105 13.667 -139 41s-51 65.333 -51 114c0 6 0.666992 17 2 33h40c-1.33301 -14.667 -2 -25 -2 -31
c0 -82 50 -123 150 -123c43.333 0 83.666 13.167 120.999 39.5s56 60.166 56 101.499c0 63.333 -50.333 95 -151 95h-49l8 34h36c20 0 39.667 1.83301 59 5.5s38.333 9.5 57 17.5s33.834 20 45.501 36s17.5 35 17.5 57c0 28 -12.167 49.667 -36.5 65s-54.833 23 -91.5 23
c-100 0 -159.667 -43.333 -179 -130h-41c14 58.667 39.5 100.667 76.5 126s85.833 38 146.5 38c50.667 0 90.834 -10.5 120.501 -31.5s44.5 -51.167 44.5 -90.5c0 -35.333 -12.5 -65 -37.5 -89s-56.167 -38.333 -93.5 -43z" />
    <glyph glyph-name="afii10074" unicode="&#x438;" horiz-adv-x="519" 
d="M349 0l97 460h-1l-402 -460h-51l108 512h40l-98 -462h1l402 462h52l-108 -512h-40z" />
    <glyph glyph-name="afii10075" unicode="&#x439;" horiz-adv-x="519" 
d="M349 0l97 460h-1l-402 -460h-51l108 512h40l-98 -462h1l402 462h52l-108 -512h-40zM462 712c-8 -34 -25.668 -62.499 -53.001 -85.499s-59.666 -34.5 -96.999 -34.5c-35.333 0 -64.333 9.66699 -87 29s-34 45.333 -34 78c0 6 0.333008 10.333 1 13h33
c0.666992 -58 29.334 -87 86.001 -87c24.667 0 48.167 8.16699 70.5 24.5s38.166 37.166 47.499 62.499h33z" />
    <glyph glyph-name="afii10076" unicode="&#x43a;" horiz-adv-x="463" 
d="M404 0h-44l-169 272l-127 -101l-36 -171h-40l109 512h40l-62 -288l360 288h58l-272 -216z" />
    <glyph glyph-name="afii10077" unicode="&#x43b;" horiz-adv-x="537" 
d="M516 512l-109 -511.999h-40l101 477h-227l-68 -274c-19.333 -76.667 -42.5 -131.334 -69.5 -164.001s-58.833 -49 -95.5 -49c-20 0 -38 3.33301 -54 10l7 36c14.667 -7.33301 32.667 -11 54 -11c50 0 90.333 60.667 121 182l75 305h305z" />
    <glyph glyph-name="afii10078" unicode="&#x43c;" horiz-adv-x="630" 
d="M132 476l-101 -476h-40l109 512h62l92 -465l289 465h66l-109 -512h-40l101 476h-2l-292 -476h-42l-91 476h-2z" />
    <glyph glyph-name="afii10079" unicode="&#x43d;" horiz-adv-x="519" 
d="M349 0l54 255h-319l-54 -255h-40l108 512h40l-47 -223h319l47 223h40l-108 -512h-40z" />
    <glyph glyph-name="afii10080" unicode="&#x43e;" horiz-adv-x="537" 
d="M490 323c0 -40.667 -5.83105 -80.667 -17.498 -120s-28.334 -75.5 -50.001 -108.5s-50.167 -59.5 -85.5 -79.5s-74.666 -30 -117.999 -30c-64.667 0 -114.834 18.667 -150.501 56s-53.5 89.666 -53.5 156.999c0 88 24.667 164.833 74 230.5s116.666 98.5 201.999 98.5
c62.667 0 111.5 -18.167 146.5 -54.5s52.5 -86.166 52.5 -149.499zM288.002 492c-48.667 0 -91.3311 -15.167 -127.998 -45.5s-63.334 -67.333 -80.001 -111s-25 -89.5 -25 -137.5c0 -56.667 14.5 -100.667 43.5 -132s69.5 -47 121.5 -47c38 0 72.167 9.5 102.5 28.5
s54.5 43.667 72.5 74s31.667 63 41 98s14 70.167 14 105.5c0 51.333 -14.333 92 -43 122s-68.334 45 -119.001 45z" />
    <glyph glyph-name="afii10081" unicode="&#x43f;" horiz-adv-x="519" 
d="M349 0l102 478h-319l-102 -478h-40l109 512h399l-109 -512h-40z" />
    <glyph glyph-name="afii10082" unicode="&#x440;" 
d="M133 512l-24.999 -119c44.667 89.333 113.334 134 206.001 134c56.667 0 101.5 -18.833 134.5 -56.5s49.5 -88.834 49.5 -153.501c0 -53.333 -9.83301 -104.666 -29.5 -153.999s-50.334 -91.333 -92.001 -126s-89.834 -52 -144.501 -52c-50 0 -90.667 14.167 -122 42.5
s-49.333 66.833 -54 115.5l-68 -328h-40l148 697h37zM303.001 493c-36.667 0 -70.832 -10.334 -102.499 -31.001s-56.834 -47.667 -75.501 -81c-34 -62.667 -51 -127 -51 -193c0 -52 14.167 -93.333 42.5 -124s66.5 -46 114.5 -46c35.333 0 67.833 9.5 97.5 28.5
s53.667 43.5 72 73.5s32.5 62.333 42.5 97s15 68.334 15 101.001c0 52.667 -13 95 -39 127s-64.667 48 -116 48z" />
    <glyph glyph-name="afii10083" unicode="&#x441;" horiz-adv-x="519" 
d="M453 164c-18 -54.667 -47.3311 -98.001 -87.998 -130.001s-89.667 -48 -147 -48c-62 0 -110 18.5 -144 55.5s-51 89.167 -51 156.5c0 56 10.333 108.5 31 157.5s52.667 89.833 96 122.5s93.666 49 150.999 49c56 0 100.333 -15 133 -45s49 -70.667 49 -122v-3h-40
c0 42 -12.833 75 -38.5 99s-60.834 36 -105.501 36c-72.667 0 -130.167 -29.5 -172.5 -88.5s-63.5 -126.833 -63.5 -203.5c0 -57.333 13.667 -101.666 41 -132.999s66.333 -47 117 -47c90 0 153.667 48 191 144h41z" />
    <glyph glyph-name="afii10084" unicode="&#x442;" horiz-adv-x="444" 
d="M261 477l-101 -477h-40l101 477h-194l7 35h428l-7 -35h-194z" />
    <glyph glyph-name="afii10085" unicode="&#x443;" horiz-adv-x="426" 
d="M459 512l-289.002 -506.998c-32.667 -58.667 -59 -101.334 -79 -128.001c-16 -22.667 -33.167 -38.667 -51.5 -48s-41.166 -14 -68.499 -14c-6.66699 0 -19.667 1 -39 3l8 35c12.667 -0.666992 23.667 -1 33 -1c28 0 50 7 66 21s32.667 36 50 66l36 61l-99 512h42
l63 -323c8 -38.667 16 -86.334 24 -143.001c18.667 38.667 42.334 83 71.001 133l188 333h45z" />
    <glyph glyph-name="afii10086" unicode="&#x444;" horiz-adv-x="766" 
d="M325 152l43.999 207c1.33301 12 2 20.667 2 26c0 30 -9.66699 55.333 -29 76s-42 31 -68 31c-36 0 -68.667 -10.333 -98 -31s-52.5 -47.167 -69.5 -79.5s-30.167 -66.333 -39.5 -102s-14 -70.167 -14 -103.5c0 -46.667 9.5 -83.834 28.5 -111.501s48.5 -41.5 88.5 -41.5
c30.667 0 62.334 12.833 95.001 38.5s52.667 55.834 60 90.501zM681.999 347c0 96.667 -40.6689 145.001 -122.002 145.001c-30.667 0 -61.667 -13.333 -93 -40s-50.666 -57.667 -57.999 -93l-44 -207c-2 -9.33301 -3 -17.666 -3 -24.999c0 -29.333 9.83301 -54 29.5 -74
s42.834 -30 69.501 -30c35.333 0 67.5 10.833 96.5 32.5s52.333 49.167 70 82.5s31.167 68.166 40.5 104.499s14 71.166 14 104.499zM459.997 -11.999c-27.333 0 -50.832 6.99902 -70.499 20.999s-34.167 32 -43.5 54l-53 -248h-40l53 248c-42.667 -50 -90 -75 -142 -75
c-49.333 0 -87.333 17.333 -114 52s-40 79.334 -40 134.001c0 38 5.66699 77.167 17 117.5s27.5 78.166 48.5 113.499s48.667 64.333 83 87s71.833 34 112.5 34c27.333 0 51.166 -7.5 71.499 -22.5s35.166 -33.5 44.499 -55.5l57 264h40l-57 -264
c18.667 22 41.5 40.5 68.5 55.5s54.167 22.5 81.5 22.5c48.667 0 85.334 -16.167 110.001 -48.5s37 -75.166 37 -128.499c0 -52.667 -9.66699 -106 -29 -160s-49.833 -101 -91.5 -141s-89.5 -60 -143.5 -60z" />
    <glyph glyph-name="afii10087" unicode="&#x445;" horiz-adv-x="426" 
d="M451 512l-228 -247l143 -265h-47l-125 239l-219 -239h-50l251 269l-129 243h46l112 -218l197 218h49z" />
    <glyph glyph-name="afii10088" unicode="&#x446;" horiz-adv-x="537" 
d="M378 -161l35 161h-423l109 512h40l-102 -477h318l102 477h40l-102 -477h65l-42 -196h-40z" />
    <glyph glyph-name="afii10089" unicode="&#x447;" horiz-adv-x="489" 
d="M318 0l53.001 248.999c-71.333 -26 -129.666 -39 -174.999 -39c-94 0 -141 38.667 -141 116c0 18 2.33301 37.333 7 58l27 128h40l-30 -141c-3.33301 -14 -5 -28.667 -5 -44c0 -29.333 8.83301 -50.166 26.5 -62.499s43.167 -18.5 76.5 -18.5
c27.333 0 59.666 4.83301 96.999 14.5s65.666 18.5 84.999 26.5l48 225h40l-109 -512h-40z" />
    <glyph glyph-name="afii10090" unicode="&#x448;" horiz-adv-x="768" 
d="M-10 0l108 512h40l-101 -477h264l101 477h40l-101 -477h264l101 477h40l-108 -512h-648z" />
    <glyph glyph-name="afii10091" unicode="&#x449;" horiz-adv-x="789" 
d="M629 -161l35 161h-674l109 512h40l-102 -477h265l102 477h40l-102 -477h264l102 477h40l-102 -477h65l-42 -196h-40z" />
    <glyph glyph-name="afii10092" unicode="&#x44a;" horiz-adv-x="611" 
d="M547 168c0 -32.667 -8.00098 -62.333 -24.001 -89s-37.667 -46.667 -65 -60c-27.333 -12.667 -71.666 -19 -132.999 -19h-221l101 477h-178l7 35h218l-44 -209h169c52.667 0 94.167 -9.5 124.5 -28.5s45.5 -54.5 45.5 -106.5zM506.999 166.001
c0 40 -12.168 66.832 -36.501 80.499s-58.833 20.5 -103.5 20.5h-167l-50 -232h175c60.667 0 103.334 7.66699 128.001 23c16 10.667 29 25.834 39 45.501s15 40.5 15 62.5z" />
    <glyph glyph-name="afii10093" unicode="&#x44b;" horiz-adv-x="630" 
d="M414 168c0 -32.667 -8.00098 -62.333 -24.001 -89s-37.667 -46.667 -65 -60c-27.333 -12.667 -71.666 -19 -132.999 -19h-201l109 512h39l-44 -209h149c52.667 0 94.167 -9.5 124.5 -28.5s45.5 -54.5 45.5 -106.5zM373.999 166.001c0 40 -12.168 66.832 -36.501 80.499
s-58.833 20.5 -103.5 20.5h-147l-50 -232h155c60.667 0 103.334 7.66699 128.001 23c16 10.667 29 25.834 39 45.501s15 40.5 15 62.5zM460.998 0l109 512h40l-109 -512h-40z" />
    <glyph glyph-name="afii10094" unicode="&#x44c;" horiz-adv-x="489" 
d="M434 168c0 -32.667 -8.00098 -62.333 -24.001 -89s-37.667 -46.667 -65 -60c-27.333 -12.667 -71.666 -19 -132.999 -19h-221l109 512h39l-44 -209h169c52.667 0 94.167 -9.5 124.5 -28.5s45.5 -54.5 45.5 -106.5zM393.999 166.001c0 40 -12.168 66.832 -36.501 80.499
s-58.833 20.5 -103.5 20.5h-167l-50 -232h175c60.667 0 103.334 7.66699 128.001 23c16 10.667 29 25.834 39 45.501s15 40.5 15 62.5z" />
    <glyph glyph-name="afii10095" unicode="&#x44d;" horiz-adv-x="519" 
d="M469 315c0 -56 -10.3359 -108.498 -31.0029 -157.498s-52.667 -89.833 -96 -122.5s-93.666 -49 -150.999 -49c-56 0 -100.333 15 -133 45s-49 70.667 -49 122v3h40c0 -42 12.833 -75 38.5 -99s60.834 -36 105.501 -36c62.667 0 114.167 22.167 154.5 66.5
s65.833 99.166 76.5 164.499h-272l7 35h269c0.666992 6 1 14.667 1 26c0 57.333 -13.667 101.666 -41 132.999s-66.333 47 -117 47c-85.333 0 -147.333 -43 -186 -129h-41c19.333 50.667 48.833 90.5 88.5 119.5s86.834 43.5 141.501 43.5c62 0 110 -18.5 144 -55.5
s51 -89.167 51 -156.5z" />
    <glyph glyph-name="afii10096" unicode="&#x44e;" horiz-adv-x="730" 
d="M683 323c0 -40.667 -5.83203 -80.667 -17.499 -120s-28.334 -75.5 -50.001 -108.5s-50.167 -59.5 -85.5 -79.5s-74.666 -30 -117.999 -30c-64.667 0 -114.834 18.667 -150.501 56s-53.5 89.666 -53.5 156.999c0 21.333 1.33301 40.333 4 57h-128l-54 -255h-40l108 512h40
l-47 -223h127c15.333 68.667 46 125.5 92 170.5s104 67.5 174 67.5c62.667 0 111.5 -18.167 146.5 -54.5s52.5 -86.166 52.5 -149.499zM481.001 492c-48.667 0 -91.3311 -15.167 -127.998 -45.5s-63.334 -67.333 -80.001 -111s-25 -89.5 -25 -137.5
c0 -56.667 14.5 -100.667 43.5 -132s69.5 -47 121.5 -47c38 0 72.167 9.5 102.5 28.5s54.5 43.667 72.5 74s31.667 63 41 98s14 70.167 14 105.5c0 51.333 -14.333 92 -43 122s-68.334 45 -119.001 45z" />
    <glyph glyph-name="afii10097" unicode="&#x44f;" horiz-adv-x="500" 
d="M478 511l-109 -511.001h-39l46 221h-181l-213 -221h-50l225 233c-26 4.66699 -48.333 18.334 -67 41.001s-28 49 -28 79c0 50.667 17.833 89.667 53.5 117s80.167 41 133.5 41h229zM431 477.999h-184c-42 0 -76.667 -11 -104 -33s-41 -53.667 -41 -95
c0 -29.333 11.333 -52.5 34 -69.5s52 -25.5 88 -25.5h160z" />
    <glyph glyph-name="afii10071" unicode="&#x451;" horiz-adv-x="519" 
d="M445 168c-16.667 -58.667 -44.834 -103.83 -84.501 -135.497s-88.167 -47.5 -145.5 -47.5c-63.333 0 -112.666 19.167 -147.999 57.5s-53 92.166 -53 161.499c0 92 25.5 168.833 76.5 230.5s114.5 92.5 190.5 92.5c60 0 107 -18.167 141 -54.5s51 -86.833 51 -151.5
c0 -18.667 -2 -41.334 -6 -68.001h-409c-2.66699 -14 -4 -30.333 -4 -49c0 -58 14.5 -103.5 43.5 -136.5s69.167 -49.5 120.5 -49.5c43.333 0 81.333 13.167 114 39.5s56.667 63.166 72 110.499h41zM63 287.004h368c2 16 3 27.667 3 35c0 54 -13.667 96 -41 126
s-65.666 45 -114.999 45c-52.667 0 -98.334 -18.5 -137.001 -55.5s-64.667 -87.167 -78 -150.5zM241 710.004l-21 -101h-42l21 101h42zM406 710.004l-20 -101h-43l22 101h41z" />
    <glyph glyph-name="afii10099" unicode="&#x452;" horiz-adv-x="519" 
d="M422 108c-16 -75.333 -49.6689 -139.5 -101.002 -192.5s-120.666 -86.167 -207.999 -99.5l7 33c64 10 120.167 38.667 168.5 86s78.5 100 90.5 158c0.666992 3.33301 3.5 16.5 8.5 39.5s9.33301 44.667 13 65s5.5 36.5 5.5 48.5c0 70.667 -39.333 106 -118 106
c-56.667 0 -106.167 -19.667 -148.5 -59s-70.166 -91 -83.499 -155l-29 -138h-40l101 477h-63l8 35h63l42 200h39l-42 -200h263l-8 -35h-263l-45 -213h2c20.667 37.333 50.834 66.833 90.501 88.5s80.167 32.5 121.5 32.5c55.333 0 94.166 -13 116.499 -39
s33.5 -56.333 33.5 -91c0 -24.667 -8 -73.667 -24 -147z" />
    <glyph glyph-name="afii10100" unicode="&#x453;" horiz-adv-x="400" 
d="M132 477l-101 -477h-40l108 512h340l-7 -35h-300zM406 738l-153 -142h-39l137 142h55z" />
    <glyph glyph-name="afii10101" unicode="&#x454;" horiz-adv-x="519" 
d="M483 364l-39.9971 -0.000976562c-1.33301 40 -14.833 71.333 -40.5 94s-60.167 34 -103.5 34c-72.667 0 -130.167 -29.5 -172.5 -88.5s-63.5 -126.833 -63.5 -203.5c0 -57.333 13.667 -101.666 41 -132.999s66.333 -47 117 -47c90 0 153.667 48 191 144h41
c-18 -54.667 -47.333 -98 -88 -130s-89.667 -48 -147 -48c-62 0 -110 18.5 -144 55.5s-51 89.167 -51 156.5c0 56 10.333 108.5 31 157.5s52.667 89.833 96 122.5s93.666 49 150.999 49c55.333 0 99.166 -14.5 131.499 -43.5s49.166 -68.833 50.499 -119.5zM349.003 288.999
l-7 -34h-285l8 34h284z" />
    <glyph glyph-name="afii10102" unicode="&#x455;" horiz-adv-x="463" 
d="M421 363l-40 0.00390625v15c0 38 -11.333 66 -34 84s-58 27 -106 27c-42.667 0 -76.167 -8.66699 -100.5 -26s-36.5 -41.333 -36.5 -72c0 -10 1.33301 -19.333 4 -28s7.33398 -16.334 14.001 -23.001s12.667 -12.334 18 -17.001s13.5 -9.5 24.5 -14.5l24.5 -11
c5.33301 -2.33301 14.5 -5.66602 27.5 -9.99902s21.167 -7.16602 24.5 -8.49902c22 -8 39.667 -15 53 -21s28.166 -14.667 44.499 -26s28.333 -24.833 36 -40.5s11.5 -33.834 11.5 -54.501c0 -50.667 -20 -88.667 -60 -114s-86.333 -38 -139 -38
c-60.667 0 -107.667 14 -141 42s-50 67.333 -50 118c0 1.33301 0.666992 10 2 26h40c-1.33301 -16 -2 -24.333 -2 -25c0 -40.667 13.333 -72 40 -94s64.667 -33 114 -33c44.667 0 81.5 10.5 110.5 31.5s43.5 48.167 43.5 81.5c0 9.33301 -1.33301 18.166 -4 26.499
s-5.83398 15.5 -9.50098 21.5s-9.16699 12 -16.5 18s-13.5 10.667 -18.5 14s-12.667 7.5 -23 12.5s-17.833 8.33301 -22.5 10l-25 9c-12 4.33301 -19.333 7.16602 -22 8.49902l-41.5 16c-8.33301 3.33301 -20.166 9.16602 -35.499 17.499s-26.5 16.5 -33.5 24.5
s-13.5 18.667 -19.5 32s-9 28.333 -9 45c0 42 16.5 75.667 49.5 101s76.833 38 131.5 38c118 0 177 -48.667 177 -146c0 -6 -0.333008 -11.667 -1 -17z" />
    <glyph glyph-name="afii10103" unicode="&#x456;" horiz-adv-x="167" 
d="M141 512l-109 -512h-40l109 512h40zM184 712l-21 -101h-41l21 101h41z" />
    <glyph glyph-name="afii10104" unicode="&#x457;" horiz-adv-x="167" 
d="M268 712l-22 -101h-43l22 101h43zM93 712l-22 -101h-42l22 101h42zM141 512l-109 -512h-40l109 512h40z" />
    <glyph glyph-name="afii10105" unicode="&#x458;" horiz-adv-x="167" 
d="M141 512l-120 -565c-4.66699 -21.333 -9.16699 -38.5 -13.5 -51.5s-10.833 -26.667 -19.5 -41s-20.5 -24.833 -35.5 -31.5s-33.167 -10 -54.5 -10c-13.333 0 -27.333 1 -42 3l7 36c10 -2 20.667 -3 32 -3c13.333 0 24.833 2.16699 34.5 6.5s17 8.5 22 12.5
s9.83301 12.167 14.5 24.5s7.5 20.833 8.5 25.5s3.5 15.667 7.5 33l118 561h41zM183 712l-21 -101h-41l21 101h41z" />
    <glyph glyph-name="afii10106" unicode="&#x459;" horiz-adv-x="778" 
d="M723 168c0 -32.667 -8.16895 -62.499 -24.502 -89.499s-38.166 -46.833 -65.499 -59.5s-71.666 -19 -132.999 -19h-167l100 477h-192l-68 -274c-19.333 -76.667 -42.5 -131.334 -69.5 -164.001s-58.833 -49 -95.5 -49c-20 0 -38 3.33301 -54 10l7 36
c14.667 -7.33301 32.667 -11 54 -11c50 0 90.333 60.667 121 182l75 305h270l-44 -210h114c53.333 0 95.333 -9.33301 126 -28s46 -54 46 -106zM681.998 166.001c0 40 -12.168 66.832 -36.501 80.499s-58.833 20.5 -103.5 20.5h-113l-49 -232h120
c61.333 0 104 7.66699 128 23c16.667 10.667 29.834 25.834 39.501 45.501s14.5 40.5 14.5 62.5z" />
    <glyph glyph-name="afii10107" unicode="&#x45a;" horiz-adv-x="778" 
d="M370 267h-283.001l-57 -267h-40l108 512h40l-44 -210h283l44 210h40l-44 -210h133c25.333 0 47.333 -1.83301 66 -5.5s36.334 -10 53.001 -19s29.5 -22.667 38.5 -41s13.5 -41.166 13.5 -68.499c0 -32.667 -8 -62.334 -24 -89.001s-37.667 -46.667 -65 -60
c-28 -12.667 -72.667 -19 -134 -19h-184zM680.999 166c0 40 -12.167 66.832 -36.5 80.499s-58.833 20.5 -103.5 20.5h-131l-50 -232h139c60.667 0 103 7.66699 127 23c16.667 10.667 30 25.834 40 45.501s15 40.5 15 62.5z" />
    <glyph glyph-name="afii10108" unicode="&#x45b;" horiz-adv-x="519" 
d="M28 0h-0.999023h-40l102 477h-63l7 35h63l43 200h39l-43 -200h263l-7 -35h-263l-46 -215c53.333 82 122 123 206 123c44.667 0 81 -12 109 -36s42 -55.667 42 -95c0 -20.667 -5 -54 -15 -100l-33 -154h-40l32 155c9.33301 44.667 14 76.334 14 95.001
c0 30.667 -10.833 55 -32.5 73s-50.834 27 -87.501 27c-42.667 0 -79.834 -11.333 -111.501 -34s-55.667 -49.834 -72 -81.501s-29.166 -68.5 -38.499 -110.5z" />
    <glyph glyph-name="afii10109" unicode="&#x45c;" horiz-adv-x="463" 
d="M404 0h-44l-169 272l-127 -101l-36 -171h-40l109 512h40l-62 -288l360 288h58l-272 -216zM415 738l-153 -142h-39l137 142h55z" />
    <glyph glyph-name="afii10110" unicode="&#x45e;" horiz-adv-x="426" 
d="M459 512l-289.002 -506.998c-32.667 -58.667 -59 -101.334 -79 -128.001c-16 -22.667 -33.167 -38.667 -51.5 -48s-41.166 -14 -68.499 -14c-6.66699 0 -19.667 1 -39 3l8 35c12.667 -0.666992 23.667 -1 33 -1c28 0 50 7 66 21s32.667 36 50 66l36 61l-99 512h42
l63 -323c8 -38.667 16 -86.334 24 -143.001c18.667 38.667 42.334 83 71.001 133l188 333h45zM400.998 712.002c-8 -34 -25.668 -62.499 -53.001 -85.499s-59.666 -34.5 -96.999 -34.5c-35.333 0 -64.333 9.66699 -87 29s-34 45.333 -34 78c0 6 0.333008 10.333 1 13h33
c0.666992 -58 29.334 -87 86.001 -87c24.667 0 48.167 8.16699 70.5 24.5s38.166 37.166 47.499 62.499h33z" />
    <glyph glyph-name="afii10193" unicode="&#x45f;" horiz-adv-x="519" 
d="M209 0l-35 -161h-40l35 161h-180l109 512h40l-102 -477h319l102 477h40l-109 -512h-179z" />
    <glyph glyph-name="afii10050" unicode="&#x490;" horiz-adv-x="500" 
d="M182 674l-144 -674h-43l152 712h391l36 170h43l-44 -208h-391z" />
    <glyph glyph-name="afii10098" unicode="&#x491;" horiz-adv-x="400" 
d="M474 673l-42 -196h-300l-101 -477h-40l109 512h300l34 161h40z" />
    <glyph glyph-name="endash" unicode="&#x2013;" horiz-adv-x="500" 
d="M504 291l-8 -38h-500l8 38h500z" />
    <glyph glyph-name="emdash" unicode="&#x2014;" horiz-adv-x="1000" 
d="M1004 291l-8 -38h-1000l8 38h1000z" />
    <glyph glyph-name="quoteleft" unicode="&#x2018;" horiz-adv-x="204" 
d="M227 726l-7 -33.002c-13.333 -4.66699 -24.166 -12.667 -32.499 -24s-14 -21.666 -17 -30.999s-6.5 -22.666 -10.5 -39.999h18l-22 -102h-49l21 100c8 36.667 18.667 65 32 85s35.666 35 66.999 45z" />
    <glyph glyph-name="quoteright" unicode="&#x2019;" horiz-adv-x="204" 
d="M210 712l-21 -99.998c-8 -36.667 -18.667 -65 -32 -85s-35.666 -35 -66.999 -45l7 33c13.333 4.66699 24.166 12.667 32.499 24s14 21.666 17 30.999s6.5 22.666 10.5 39.999h-18l22 102h49z" />
    <glyph glyph-name="quotesinglbase" unicode="&#x201a;" horiz-adv-x="204" 
d="M81 102l-21 -99.998c-8 -36.667 -18.667 -65 -32 -85s-35.666 -35 -66.999 -45l7 33c13.333 4.66699 24.166 12.667 32.499 24s14 21.666 17 30.999s6.5 22.666 10.5 39.999h-18l22 102h49z" />
    <glyph glyph-name="quotedblleft" unicode="&#x201c;" horiz-adv-x="315" 
d="M336 726l-7 -33.002c-13.333 -4.66699 -24.166 -12.667 -32.499 -24s-14 -21.666 -17 -30.999s-6.5 -22.666 -10.5 -39.999h18l-22 -102h-49l21 100c8 36.667 18.667 65 32 85s35.666 35 66.999 45zM210 725.998l-7 -33.002
c-13.333 -4.66699 -24.166 -12.667 -32.499 -24s-14 -21.666 -17 -30.999s-6.5 -22.666 -10.5 -39.999h18l-22 -102h-49l21 100c8 36.667 18.667 65 32 85s35.666 35 66.999 45z" />
    <glyph glyph-name="quotedblright" unicode="&#x201d;" horiz-adv-x="315" 
d="M322 712l-21 -99.998c-8 -36.667 -18.667 -65 -32 -85s-35.666 -35 -66.999 -45l7 33c13.333 4.66699 24.166 12.667 32.499 24s14 21.666 17 30.999s6.5 22.666 10.5 39.999h-18l22 102h49zM196 712.002l-21 -99.998c-8 -36.667 -18.667 -65 -32 -85
s-35.666 -35 -66.999 -45l7 33c13.333 4.66699 24.166 12.667 32.499 24s14 21.666 17 30.999s6.5 22.666 10.5 39.999h-18l22 102h49z" />
    <glyph glyph-name="quotedblbase" unicode="&#x201e;" horiz-adv-x="315" 
d="M81 102l-21 -99.998c-8 -36.667 -18.667 -65 -32 -85s-35.666 -35 -66.999 -45l7 33c13.333 4.66699 24.166 12.667 32.499 24s14 21.666 17 30.999s6.5 22.666 10.5 39.999h-18l22 102h49zM207 102.002l-21 -99.998c-8 -36.667 -18.667 -65 -32 -85
s-35.666 -35 -66.999 -45l7 33c13.333 4.66699 24.166 12.667 32.499 24s14 21.666 17 30.999s6.5 22.666 10.5 39.999h-18l22 102h49z" />
    <glyph glyph-name="dagger" unicode="&#x2020;" 
d="M376 712l-49 -233h205l-8 -36h-205l-125 -589h-39l124 589h-205l8 36h205l49 233h40z" />
    <glyph glyph-name="daggerdbl" unicode="&#x2021;" 
d="M375 712l-42 -198h205l-7 -36h-205l-83 -391h205l-7 -34h-205l-42 -198h-39l42 198h-205l8 34h205l82 391h-204l7 36h205l42 198h38z" />
    <glyph glyph-name="bullet" unicode="&#x2022;" horiz-adv-x="500" 
d="M250 534c49.333 0 91.333 -17.5 126 -52.5s52 -76.833 52 -125.5c0 -49.333 -17.5 -91.333 -52.5 -126s-76.833 -52 -125.5 -52c-49.333 0 -91.333 17.5 -126 52.5s-52 76.833 -52 125.5c0 49.333 17.5 91.333 52.5 126s76.833 52 125.5 52z" />
    <glyph glyph-name="ellipsis" unicode="&#x2026;" horiz-adv-x="1000" 
d="M148 102l-22 -102h-50l22 102h50zM482 102l-22 -102h-50l22 102h50zM815 102l-22 -102h-50l22 102h50z" />
    <glyph glyph-name="perthousand" unicode="&#x2030;" horiz-adv-x="1056" 
d="M639 723l-546 -755h-38l545 755h39zM357 573c0 -57.333 -16.5 -105.666 -49.5 -144.999s-73.833 -59 -122.5 -59c-40.667 0 -72.5 11.833 -95.5 35.5s-34.5 56.167 -34.5 97.5c0 55.333 16.167 103 48.5 143s75.5 60 129.5 60c40 0 70.667 -11.833 92 -35.5
s32 -55.834 32 -96.501zM228 675c-40 0 -73 -16.5 -99 -49.5s-39 -74.833 -39 -125.5c0 -32 8.5 -57 25.5 -75s40.833 -27 71.5 -27c42 0 75 18.5 99 55.5s36 77.833 36 122.5c0 66 -31.333 99 -94 99zM643 193c0 -57.333 -16.5 -105.668 -49.5 -145.001
s-73.833 -59 -122.5 -59c-40.667 0 -72.5 11.833 -95.5 35.5s-34.5 56.167 -34.5 97.5c0 55.333 16.167 103 48.5 143s75.5 60 129.5 60c40 0 70.667 -12.167 92 -36.5s32 -56.166 32 -95.499zM514 294.998c-40 0 -73 -16.501 -99 -49.501s-39 -74.833 -39 -125.5
c0 -32 8.5 -57 25.5 -75s40.833 -27 71.5 -27c42 0 75 18.5 99 55.5s36 77.833 36 122.5c0 28.667 -8.16699 52.334 -24.5 71.001s-39.5 28 -69.5 28zM1000 192.997c0 -57.333 -16.5 -105.666 -49.5 -144.999s-73.833 -59 -122.5 -59c-40.667 0 -72.5 11.833 -95.5 35.5
s-34.5 56.167 -34.5 97.5c0 55.333 16.167 103 48.5 143s75.5 60 129.5 60c40 0 70.667 -11.833 92 -35.5s32 -55.834 32 -96.501zM871 294.997c-40 0 -73 -16.5 -99 -49.5s-39 -74.833 -39 -125.5c0 -32 8.5 -57 25.5 -75s40.833 -27 71.5 -27c42 0 75 18.5 99 55.5
s36 77.833 36 122.5c0 66 -31.333 99 -94 99z" />
    <glyph glyph-name="guilsinglleft" unicode="&#x2039;" horiz-adv-x="259" 
d="M197 419l-11 -51l-113 -98l68 -111l-9 -45l-89 141l9 39z" />
    <glyph glyph-name="guilsinglright" unicode="&#x203a;" horiz-adv-x="259" 
d="M96 420l89 -142l-9 -38l-145 -125l11 51l113 98l-69 111z" />
    <glyph glyph-name="afii61352" unicode="&#x2116;" horiz-adv-x="950" 
d="M743 163c34.667 0 62.167 12.833 82.5 38.5s30.5 55.834 30.5 90.501c0 25.333 -7 46.166 -21 62.499s-34.667 24.5 -62 24.5c-34.667 0 -62.167 -12.833 -82.5 -38.5s-30.5 -55.834 -30.5 -90.501c0 -25.333 7 -46.166 21 -62.499s34.667 -24.5 62 -24.5zM738 126
c-37.333 0 -66.333 11.499 -87 34.499s-31 52.167 -31 87.5c0 46.667 14.333 86.334 43 119.001s67 49 115 49c37.333 0 66.333 -11.333 87 -34s31 -51.667 31 -87c0 -48 -14.333 -88.167 -43 -120.5s-67 -48.5 -115 -48.5zM846 -0.000976562h-274l9 43h274zM1 -0.000976562
l146 685h53l278 -626h2l133 626h42l-146 -685h-50l-280 631h-2l-134 -631h-42z" />
    <glyph glyph-name="trademark" unicode="&#x2122;" horiz-adv-x="990" 
d="M280 356v328h-129v28h288v-28h-129v-328h-30zM510 356v356h46l123 -315l123 315h44v-356h-27v323l-127 -323h-27l-127 323v-323h-28z" />
    <glyph glyph-name="Delta" unicode="&#x2206;" horiz-adv-x="639" 
d="M414 712l139 -712h-612l438 712h35zM2 35h504l-119 627z" />
    <glyph glyph-name="radical" unicode="&#x221a;" horiz-adv-x="600" 
d="M506 785l-215 -999h-32l-178 366l-44 -21l-13 27l73 36l173 -359l203 950h33z" />
    <glyph glyph-name="infinity" unicode="&#x221e;" horiz-adv-x="722" 
d="M349 291c2.66699 2 9.16699 7.83301 19.5 17.5s17.5 16.167 21.5 19.5l21 18c10 8.66699 17.833 14.834 23.5 18.501l23.5 14.5c10 6 18.667 10.167 26 12.5s15.833 4.66602 25.5 6.99902s18.834 3.5 27.501 3.5c37.333 0 67.666 -12.333 90.999 -37s35 -55.667 35 -93
c0 -38.667 -11.5 -70.5 -34.5 -95.5s-53.5 -37.5 -91.5 -37.5c-9.33301 0 -18.833 1 -28.5 3s-18.167 4.33301 -25.5 7s-15.833 6.83398 -25.5 12.501l-23 13.5c-5.66699 3.33301 -13.5 9.16602 -23.5 17.499s-16.833 14.166 -20.5 17.499l-21.5 19.5
c-10.667 9.66699 -17.334 15.834 -20.001 18.501l-32.5 -29c-15.667 -14 -27.667 -24.167 -36 -30.5s-19.5 -14 -33.5 -23s-28 -15.5 -42 -19.5s-28.667 -6 -44 -6c-38 0 -68.5 12.167 -91.5 36.5s-34.5 55.5 -34.5 93.5c0 36.667 11.5 67.834 34.5 93.501
s52.5 38.5 88.5 38.5c7.33301 0 14.833 -0.666992 22.5 -2s14.5 -2.83301 20.5 -4.5s13.167 -4.66699 21.5 -9l19.5 -10c4.66699 -2.33301 11.5 -6.66602 20.5 -12.999l18.5 -13c3.33301 -2.33301 9.5 -7.5 18.5 -15.5s14.5 -12.833 16.5 -14.5
s7.83301 -6.83398 17.5 -15.501s14.834 -13.334 15.501 -14.001zM371 269l27.998 -24.5c14 -12.333 24.833 -21.5 32.5 -27.5s18 -13.167 31 -21.5s25.5 -14.333 37.5 -18s24.333 -5.5 37 -5.5c28.667 0 51.334 9 68.001 27s25 42 25 72c0 28 -8.16699 51.333 -24.5 70
s-38.5 28 -66.5 28c-14 0 -28.333 -2.83301 -43 -8.5s-31.167 -15.5 -49.5 -29.5l-37 -28.5c-6.33301 -5 -19.166 -16.167 -38.499 -33.5zM325.998 269c-1.33301 1.33301 -7.83105 7.16699 -19.498 17.5s-19.5 17 -23.5 20l-22.5 17.5
c-11 8.66699 -19.667 14.834 -26 18.501s-14.5 8 -24.5 13s-19.333 8.5 -28 10.5s-17.334 3 -26.001 3c-26 0 -47.167 -9.66699 -63.5 -29s-24.5 -42.333 -24.5 -69c0 -29.333 8.16699 -53 24.5 -71s39.166 -27 68.499 -27c19.333 0 40.166 6 62.499 18
s39.833 23.167 52.5 33.5s29.334 25.166 50.001 44.499z" />
    <glyph glyph-name="approxequal" unicode="&#x2248;" horiz-adv-x="600" 
d="M536 402c-6 -32 -19 -59.166 -39 -81.499s-45.667 -33.5 -77 -33.5c-24.667 0 -72.667 12.333 -144 37l-41.5 14.5c-17.667 6.33301 -30.667 10.833 -39 13.5s-17.833 5.16699 -28.5 7.5s-20.334 3.5 -29.001 3.5c-22 0 -41 -8.16699 -57 -24.5
s-26.667 -35.833 -32 -58.5h-28c6.66699 32.667 19.667 60 39 82s45 33 77 33c10.667 0 22.5 -1.33301 35.5 -4s23.667 -5.16699 32 -7.5s21.833 -6.66602 40.5 -12.999l40 -13.5l36 -12.5c16 -5.66699 28.167 -9.83398 36.5 -12.501s18.333 -5.33398 30 -8.00098
s22.167 -4 31.5 -4c22.667 0 41.834 8 57.501 24s26.5 35.333 32.5 58h27zM536 261.001c-6 -32 -19 -59.166 -39 -81.499s-45.667 -33.5 -77 -33.5c-24.667 0 -72.667 12.333 -144 37l-41.5 14.5c-17.667 6.33301 -30.667 10.833 -39 13.5s-17.833 5.16699 -28.5 7.5
s-20.334 3.5 -29.001 3.5c-22 0 -41 -8.16699 -57 -24.5s-26.667 -35.833 -32 -58.5h-28c6.66699 32.667 19.667 60 39 82s45 33 77 33c10.667 0 22.5 -1.33301 35.5 -4s23.667 -5.16699 32 -7.5s21.833 -6.66602 40.5 -12.999l40 -13.5l36 -12.5
c16 -5.66699 28.167 -9.83398 36.5 -12.501s18.333 -5.33398 30 -8.00098s22.167 -4 31.5 -4c22.667 0 41.834 8 57.501 24s26.5 35.333 32.5 58h27z" />
    <glyph glyph-name="notequal" unicode="&#x2260;" horiz-adv-x="600" 
d="M236 194l80 150h-264v33h282l76 143l29 -15l-68 -128h170v-33h-188l-81 -150h269v-33h-286l-75 -141l-29 15l67 126h-166v33h184z" />
    <glyph glyph-name="lessequal" unicode="&#x2264;" horiz-adv-x="600" 
d="M33 260v36l489 200v-37l-445 -181l445 -180v-37zM33 19h489v-33h-489v33z" />
    <glyph glyph-name="greaterequal" unicode="&#x2265;" horiz-adv-x="600" 
d="M541 260l-489 -199v37l446 180l-446 181v37l489 -200v-36zM541 19v-33h-489v33h489z" />
    <glyph glyph-name=".null" horiz-adv-x="0" 
 />
    <glyph glyph-name="nonmarkingreturn" horiz-adv-x="333" 
 />
    <glyph glyph-name="hyphenminus" horiz-adv-x="352" 
d="M273 290l-8 -39h-216l8 39h216z" />
  </font>
</defs>
</svg>
